<mxfile host="Electron" modified="2024-04-15T13:05:16.869Z" agent="Mozilla/5.0 (X11; Linux x86_64) AppleWebKit/537.36 (KHTML, like Gecko) draw.io/24.0.4 Chrome/120.0.6099.109 Electron/28.1.0 Safari/537.36" etag="jWssskcPpZvhpBRm7w-J" version="24.0.4" type="device">
  <diagram name="Page-1" id="anyOIZAqVntw-WIZPKTZ">
    <mxGraphModel dx="-15" dy="518" grid="1" gridSize="5" guides="1" tooltips="1" connect="1" arrows="1" fold="1" page="1" pageScale="1" pageWidth="850" pageHeight="1100" math="0" shadow="0">
      <root>
        <mxCell id="0" />
        <mxCell id="1" parent="0" />
        <mxCell id="dpxFrvmY2BpC3zV_ax-8-52" value="" style="shape=image;verticalLabelPosition=bottom;labelBackgroundColor=default;verticalAlign=top;aspect=fixed;imageAspect=0;image=data:image/png,iVBORw0KGgoAAAANSUhEUgAAAQAAAAEACAYAAABccqhmAAAHMElEQVR4nO3dy44kVxWG0X0iI6u6fcGGBgnbICExZMqAJ+GleDnEFIEYISEwMk3L7qrMjMOg3dwkJJw7UCX9rzWv0InIqq9isneOn/38F7O+ofGNf4L/1hxPfYJ/2ONz3uN+bun37V27n+WpDwA8HQGAYAIAwQQAggkABBMACCYAEEwAIJgAQDABgGACAMEEAIIJAAQTAAgmABBsfeoD8K9uaVb8VtzSjoQ93NL9eAOAYAIAwQQAggkABBMACCYAEEwAIJgAQDABgGACAMEEAIIJAAQTAAgmABBMACDYav6c/2SPufXl0rzAqLr7y7nGaVZ1z9P9+Tnr+OevmteomvdrzaVxmFl1ee9QDy/ua2y9P2BvABBMACCYAEAwAYBgAgDBBACCCQAEEwAIJgAQTAAgmABAMAGAYAIAwQQAggkABFuf+gDcrtauiDFqeTjXt371x97s+zbr8bOPat4fq+b1B5rLqG3tLzg4//DD9jXGabbn+Mc269nnj+2zeAOAYAIAwQQAggkABBMACCYAEEwAIJgAQDABgGACAMEEAIIJAAQTAAgmABBMACCYfQA7mf1R86pqzuDvrXWWWXNZ6vGTj6u6z2aMGo+XzlFq3i1VYzTvqWqcuxcYdXz5UMvjdv1zOSxVf/qi5m9+VzUOreN4A4BgAgDBBACCCQAEEwAIJgAQTAAgmABAMAGAYAIAwQQAggkABBMACCYAEEwAIJh9ADu5pTn+9m6CUXV4PevwujGz/rXTt47Nw+xptO9n9sbvq6rq9PF9ey/BfPH9mj/5pH0WbwAQTAAgmABAMAGAYAIAwQQAggkABBMACCYAEEwAIJgAQDABgGACAMEEAIIJAARbr5kdv6XZ93dNe5a/qpZLtebN5zLq8Ppcdy9PNZfrDzSXUaePju3Z9+Uy+/Pzyz6z/LsYzQ/5sNT6+au6//Ufaq69/+HeACCYAEAwAYBgAgDBBACCCQAEEwAIJgAQTAAgmABAMAGAYAIAwQQAggkABBMACLZeM9u/x8z6Xt613QTt+xlV91+capxn1bWf06za7pZ6+E7/e+zbP19Vc4zr7+XtNZZq7TZ4a2z9G5qjmvczaz6/q/nZ99r35A0AggkABBMACCYAEEwAIJgAQDABgGACAMEEAIIJAAQTAAgmABBMACCYAEAwAYBg61PN9o9Z7e+wX1+d6oPfvqx56N1E9zvWa87a3rur7f5YNa+8qVm1HUc9vDi2Z+i3Zamxdh5u1XYYb57rDexbmIcdLjL22WOxy06By+ztfRiz5t2hTh8/a+9J8AYAwQQAggkABBMACCYAEEwAIJgAQDABgGACAMEEAIIJAAQTAAgmABBMACCYAECw9akPcLU5q5ZR2/t3/e9I/+qxNfc+tlmnu6VOH62t74+fo/aZv+9+//x4s69hnPuH6TyPt/aYwa9RNXa4zHbsX2QeRvtjnmPUrGEfAHA9AYBgAgDBBACCCQAEEwAIJgAQTAAgmABAMAGAYAIAwQQAggkABBMACCYAEOz/dh/AqKrtuNTDi+ftmejD62NvDn9Wbc8Pb76DvjO7/vUcftfhq/ObWf5rjzKrtmdLzWeH9n6CeejPz4+tfYmqrWrMHXYT7LFUYCdzh79ebwAQTAAgmABAMAGAYAIAwQQAggkABBMACCYAEEwAIJgAQDABgGACAMEEAIIJAAR7un0Aszf7Pseow6vX9d4vf19z7XVs++urqs6s+PlS48ef1vKD71adL9ddY1bNddTDt9feDP6oGttW49LbBzDOo5bzbJ9l22N+foc5/qqqucNRltMOywn22imww3PxBgDBBACCCQAEEwAIJgAQTAAgmABAMAGAYAIAwQQAggkABBMACCYAEEwAIJgAQLD1mpn8Peaqa3SvM+vy4bN69dMfXT/3/k9naZlV292o7TiqZrOp3RHvWfXlp8971xhVy2nW8tjYKVBVY5u1vjy1n+92t7Rn6Ofh7efTO8u47LCboDvHP6qWx60OX17az9YbAAQTAAgmABBMACCYAEAwAYBgAgDBBACCCQAEEwAIJgAQTAAgmABAMAGAYAIAwdZrfuiaHQL/bo+dAnOtmh/cRsP+fj/N+9rj2bbNqm0ddTn2bmZsVeNc7Wcylz0WUFSNS/cCVef3D/1znGf7c97WpS7P+me5jb8e4EkIAAQTAAgmABBMACCYAEAwAYBgAgDBBACCCQAEEwAIJgAQTAAgmABAMAGAYFftA9jDTcy9v7XDWfaZWL8t7c9oVJ0+2GFm/XHrnWVWbcdR2/3Y5bPumnd7/bb0r+MNAIIJAAQTAAgmABBMACCYAEAwAYBgAgDBBACCCQAEEwAIJgAQTAAgmABAMAGAYOt8okH2m9oHwP/MtsPGiW3d8f9U8/f9Xfu99QYAwQQAggkABBMACCYAEEwAIJgAQDABgGACAMEEAIIJAAQTAAgmABBMACCYAECwvwHwfEl+VANSywAAAABJRU5ErkJggg==;container=0;fontFamily=宋体;fontSize=15;" parent="1" vertex="1">
          <mxGeometry x="980" y="455" width="80" height="80" as="geometry" />
        </mxCell>
        <mxCell id="dpxFrvmY2BpC3zV_ax-8-54" value="" style="shape=image;verticalLabelPosition=bottom;labelBackgroundColor=default;verticalAlign=top;aspect=fixed;imageAspect=0;image=data:image/png,iVBORw0KGgoAAAANSUhEUgAAAQAAAAEACAYAAABccqhmAAAG90lEQVR4nO3dQXIcSRXH4ZdV3ZItm4AIINgMh2DNKbgWh4QFsyEmAnCMZyxb3ZUsZO9mpZcTkv3/vgNkZJVKv65Nvhp//dvfZ8GvZcXTNRas8S1acG+3/hLA10oAIJgAQDABgGACAMEEAIIJAAQTAAgmABBMACCYAEAwAYBgAgDBBACCCQAEOz33BtpeyjQDZ9Z/2bd2X17SfIMF63gDgGACAMEEAIIJAAQTAAgmABBMACCYAEAwAYBgAgDBBACCCQAEEwAIJgAQTAAg2NPmAbyUM/i8bLNqvz96a4yq00+XGtfeQze3UfPU/L07Zt38+8feGnPWfPOq5nl78v/RmFWXu73uf39b4+jdF28AEEwAIJgAQDABgGACAMEEAIIJAAQTAAgmABBMACCYAEAwAYBgAgDBBACCCQAEe9o8gG/tm+/8ss5R81E1Ho56/Y//VI3GAzNnXf7wtuZ5b+1nbqPm1nxwt1Efv/ttb41Rtd1f++f4Px715p/v2/+L3gAgmABAMAGAYAIAwQQAggkABBMACCYAEEwAIJgAQDABgGACAMEEAIIJAAQTAAj2tHkA/Hp6x8QfrZjXcFSNo7eHMavm69vefkbV6b8/V3XOz89Zx91tXX/3urdOVY1L56ZU1Ri1v7+v8XA8/b5sW83/vavjX99Xjb21HW8AEEwAIJgAQDABgGACAMEEAIIJAAQTAAgmABBMACCYAEAwAYBgAgDBBACCCQAEMw/gpVlxlr9rVG2XWdvHxpn1qqpZdX17097OfHvbXKBqnrc6brf+vIWj/5t53NzVmJ35BlXHn97U5S9/bl+PNwAIJgAQTAAgmABAMAGAYAIAwQQAggkABBMACCYAEEwAIJgAQDABgGACAMEEAIKZB/AN2j7N3jnxUbV/uNb+4dqbBzCqjpve9+urqsbRv56aVeOhOwyg1sxrGFWzs9A2av/poW6/f1e19TbkDQCCCQAEEwAIJgAQTAAgmABAMAGAYAIAwQQAggkABBMACCYAEEwAIJgAQDABgGDmAbw03SPro+r2hw+PZ9+felR8zjruznV9e67qfMe+qn89i8x91HEe7f1sl/4FzTF6cwW2UXW91vbufc299xvuDQCCCQAEEwAIJgAQTAAgmABAMAGAYAIAwQQAggkABBMACCYAEEwAIJgAQDABgGDPNw9gxTnxWbUt+Ob73PsffZ9b9XM6q8bRXGNUHbenGqfGfZlVx2mrORb8kfq3to7zvmSd9myDqjrO/d/McZ29vYxZx91NXb77Y/u+eAOAYAIAwQQAggkABBMACCYAEEwAIJgAQDABgGACAMEEAIIJAAQTAAgmABBMACDY880D6BqP56r3j0f7TPRxai4wq46bUXPrf39+hXneqvbeRsas2u+7wwkWzVo4+vuoqiUzBa43C67nNNqbmWNUjWEeAPB0AgDBBACCCQAEEwAIJgAQTAAgmABAMAGAYAIAwQQAggkABBMACCYAEEwAINjXOw9gVtUYj2f5m2eiR/cM/3xcoz0KYFaNS3OVUbX//PC4zlPvy6w6Xu11fXXqX9SCM/jjWDBkYVaN2V9nxXyDJeaavXgDgGACAMEEAIIJAAQTAAgmABBMACCYAEAwAYBgAgDBBACCCQAEEwAIJgAQTAAg2Nc7D2BU1Zy1dc69f1nq2jwnPqvmaav+RqqO7vfnx5e99O/Ldjl6C9Tn79i/ECv2sn+49vex9WdY1FwzJ8EbAAQTAAgmABBMACCYAEAwAYBgAgDBBACCCQAEEwAIJgAQTAAgmABAMAGAYAIAwZ5vHsCCY+JzH3W52xes09/L40IL1lhwXx5+c27vZRz9OQnjmHX68VP7mo6b/fEMfcPcxuc5CT3dfVQ93pcxG/d2VI2Ha+3vP1U1Zxx4A4BgAgDBBACCCQAEEwAIJgAQTAAgmABAMAGAYAIAwQQAggkABBMACCYAEEwAINjzzQNYYVTNBVcw+p98r7nVmm++X/p7Oc4Luj6qZvN6xlGPcwma66w4g1/z8Rx+y6i6vG4OjxhV+/1RdfSWmbenur469xYpbwAQTQAgmABAMAGAYAIAwQQAggkABBMACCYAEEwAIJgAQDABgGACAMEEAIIJAAQ7Lfmm/VMsOOJdVbVi/3NFBldcz6iazePmVZ/P4a/QPsdfdXnTv6Dt09G7pll13Iy6vt6XPC9dx9sFf+RFvAFAMAGAYAIAwQQAggkABBMACCYAEEwAIJgAQDABgGACAMEEAIIJAAQTAAgmABDstOxc/ldsu/QPic9trJkrsMCyfSw4O3/c9B+w42bh+fmX8Ly/gJkEX7yQRxZ4DgIAwQQAggkABBMACCYAEEwAIJgAQDABgGACAMEEAIIJAAQTAAgmABBMACDY/wGyii7ByTYD8wAAAABJRU5ErkJggg==;container=0;fontFamily=宋体;fontSize=15;" parent="1" vertex="1">
          <mxGeometry x="1070" y="455" width="80" height="80" as="geometry" />
        </mxCell>
        <mxCell id="dpxFrvmY2BpC3zV_ax-8-56" value="" style="shape=image;verticalLabelPosition=bottom;labelBackgroundColor=default;verticalAlign=top;aspect=fixed;imageAspect=0;image=data:image/png,iVBORw0KGgoAAAANSUhEUgAAAQAAAAEACAYAAABccqhmAAAGyUlEQVR4nO3dwZIbVxmG4e+0pLGNIUVwFYGFWXEhLLg3rowL4B5gBUUqKWLGM6M+LOxUsWA1p0M0+Z5nP11HLc2r3vy/xh/++KcZ4OU54D93W78E8FIJABQTACgmAFBMAKCYAEAxAYBiAgDFBACKCQAUEwAoJgBQTACgmABAMQGAYucf+wDLbmWbwfixD8D/xRGftxv6rHgCgGICAMUEAIoJABQTACgmAFBMAKCYAEAxAYBiAgDFBACKCQAUEwAoJgBQTACg2PP2AdzKDD63bSbbw3XtGtvI5W9fZ3x8TMbCIP3I2t8nyZzZv/5m7RpJxjbWz7LvmU+L9zaeAKCaAEAxAYBiAgDFBACKCQAUEwAoJgBQTACgmABAMQGAYgIAxQQAigkAFBMAKPa8fQA39Pvm/IBW9j6Mkdx/zPbnvyRj4Xtm7pm/e5+8eZXMZx5ozuTunPnq7vnX+P5SX3259PcZI/nwMeNpf/7/0RjJ/UPGt/9a3ivgCQCKCQAUEwAoJgBQTACgmABAMQGAYgIAxQQAigkAFBMAKCYAUEwAoJgAQDEBgGLP2wfAD2dtXP0w4zozrvvCBZKxj5zfv1+eWc+2JY9Pz//7OTMvp8zztrwPIE8L9yT5dC8er8nT9fn7ALaReX+f+c03n+7NAk8AUEwAoJgAQDEBgGICAMUEAIoJABQTACgmAFBMAKCYAEAxAYBiAgDFBACKCQAUsw/g1iyOzh9iJONhz+l+YWb9s+tvvjzgPMfclDmS5Rd0WT/LvLxZ3vswf/XzzN//dvk6ngCgmABAMQGAYgIAxQQAigkAFBMAKCYAUEwAoJgAQDEBgGICAMUEAIoJABQTAChmH8BP0Pa4r82Jj5Ht/inbh4e1Wfwxsr+5LBzks7k49J5knrbMy7Y8P599/SzLawm2Ldu332X769+T09p3uCcAKCYAUEwAoJgAQDEBgGICAMUEAIoJABQTACgmAFBMAKCYAEAxAYBiAgDFBACK2Qdwa1bHzcfI+Z8fMp7258+cz5n56pLrL14vz+LPxXn1JNmui/sNkmQkc2UG//vLbOsXWV5vMJK8vkt+/W5tX0M8AUA1AYBiAgDFBACKCQAUEwAoJgBQTACgmABAMQGAYgIAxQQAigkAFBMAKCYAUOzl7wNY/7n2Yxwwa54kY3lYfGZetmRlbn0m87xlntaH6NdfT7KfT4fc37GvX+OQnQIHvJh5Oef6y58tX8cTABQTACgmAFBMAKCYAEAxAYBiAgDFBACKCQAUEwAoJgBQTACgmABAMQGAYgIAxV72PoCZbI/rQ97zfMB8dsb6zPrMMfsNxpZsaxca+8z28WntHDMZT9e1aySZd+dkHDCIv7qbYCTXV+v/MnNlV8N/nSVj/fvbEwAUEwAoJgBQTACgmABAMQGAYgIAxQQAigkAFBMAKCYAUEwAoJgAQDEBgGICAMVe9j6A5JiEHTKDf8Al5sz2sDg/P5Lx74eM6+KehNOWnE6LZxnZ396tXSNJ9vU3aOwz42nxnoxkOx2wf2IcsDsiOeRz6wkAigkAFBMAKCYAUEwAoJgAQDEBgGICAMUEAIoJABQTACgmAFBMAKCYAEAxAYBiL3sfwDjmt9a3h8UZ75nsd1vmeSzNaM9t5Pp68S0ZI6fMTzP0K7dm39dH1sfIuB7wEdvXZ/Czz2QuDtDP5PTt/fJR5uW8/Ln9tN9gcXdEPAFANQGAYgIAxQQAigkAFBMAKCYAUEwAoJgAQDEBgGICAMUEAIoJABQTACgmAFDsZe8DyOffWl90fXVaP8jIIb/Xvj6EP/P41Rfrx7jOjOviHP6+5/yP79Zf0+WcrLzPM5mXLfPutPYezWQ8rs/gj6fr2i0ZI3l4zPhwv3Zf4gkAqgkAFBMAKCYAUEwAoJgAQDEBgGICAMUEAIoJABQTACgmAFBMAKCYAEAxAYBiL34fwPr8fI6Z4z/I2NcPM+b6NeZ5ZL9b+3iMfWa+fb3+Hh3werKN9fd5Sx7fvV0+yni8rr/Pby4ZX7xZPosnACgmAFBMAKCYAEAxAYBiAgDFBACKCQAUEwAoJgBQTACgmABAMQGAYgIAxQQAij1v4PuI+fkj5viTm5rlP8Jc/L33JJmno27umrmNPLw7YGb9cV/eCTC3kXm+ke+7y42cI54AoJoAQDEBgGICAMUEAIoJABQTACgmAFBMAKCYAEAxAYBiAgDFBACKCQAUEwAo9rx9ALcxbn6YccDvz8+f2k1Jbmbvw37ne+p/OuD9cWehmABAMQGAYgIAxQQAigkAFBMAKCYAUEwAoJgAQDEBgGICAMUEAIoJABQTACj2H1U1Ds/960svAAAAAElFTkSuQmCC;container=0;fontFamily=宋体;fontSize=15;" parent="1" vertex="1">
          <mxGeometry x="1160" y="455" width="80" height="80" as="geometry" />
        </mxCell>
        <mxCell id="dpxFrvmY2BpC3zV_ax-8-57" value="" style="shape=image;verticalLabelPosition=bottom;labelBackgroundColor=default;verticalAlign=top;aspect=fixed;imageAspect=0;image=data:image/png,iVBORw0KGgoAAAANSUhEUgAAAQAAAAEACAYAAABccqhmAAAGX0lEQVR4nO3dsY5kRxmG4a+622OvDbIMdgAGnJBwDVwFEffEbZGTECAhEZIQgCy0ht2ZPkUwNkhkdJWZ9n7PcwG1p7vPvHuS/z/jl7/6zQzw3bPhL/e0fgTwXSUAUEwAoJgAQDEBgGICAMUEAIoJABQTACgmAFBMAKCYAEAxAYBiAgDFBACKXV76AoAbjfUjPAFAMQGAYgIAxQQAigkAFBMAKCYAUEwAoJgAQDEBgGICAMUEAIoJABQTACgmAFDMPgC+PTM5vd3wEvsdTsk8rQ/Qj6f1zzM2fCVzJPO8/nk8AUAxAYBiAgDFBACKCQAUEwAoJgBQTACgmABAMQGAYgIAxQQAigkAFBMAKCYAUMw+AO7ePI9kdfR9PM/QL9swg585kw07AcaxfognACgmAFBMAKCYAEAxAYBiAgDFBACKCQAUEwAoJgBQTACgmABAMQGAYgIAxQQAitkHwLdrw/j82DE/P5KM9YsZc8Mg/8z655l7rsUTABQTACgmAFBMAKCYAEAxAYBiAgDFBACKCQAUEwAoJgBQTACgmABAMQGAYgIAxewD2GXDmPi7aJ43LATY8d2OZO74725u2Cmw4wONZG5YtuAJAIoJABQTACgmAFBMAKCYAEAxAYBiAgDFBACKCQAUEwAoJgBQTACgmABAMQGAYvYB7LJh7H2bHePmRzKu6wdt2Qew6bsdx55ztlj9TDNbfmdPAFBMAKCYAEAxAYBiAgDFBACKCQAUEwAoJgBQTACgmABAMQGAYgIAxQQAigkAFLtpH8C4rv/D85Q9c9473h2/wx3tAzi/nevfy/j6N7oD93IdyaZ7f+y5WcZcv/nv6KsF/t8EAIoJABQTACgmAFBMAKCYAEAxAYBiAgDFBACKCQAUEwAoJgBQTACgmABAscst883b5rNXxpnPp5z+8mU++O3vM8dNaw2+voaZyxc/Sy6npeuZp1NyWpjznjPHq/fy+uefZByLc95zzz6AHUsOdtwr41g/IyOZG8bw58Kt9p9D1o8Ym/ZgeAKAYgIAxQQAigkAFBMAKCYAUEwAoJgAQDEBgGICAMUEAIoJABQTACgmAFBMAKDYZZ5f5h8eR9bm7zNzeng/l59+kXle6NhMHj//wdos/0jG45FxXRhcn8nxsLaT4N9HXcaWc3Y4v7mTCxl7dhMclw1LBXbsJUiSsX6QJwAoJgBQTACgmABAMQGAYgIAxQQAigkAFBMAKCYAUEwAoJgAQDEBgGICAMUEAIrteNv5ixgZyfWa+ffXmZe1jl3++HrtYq5Hrp9/mutnHye37gSYz3P8Y8eL3xd3LXxzPWMuHjKTyz+uy2c8fXTOXNnXkGRcZ87/nGuz+COZH64v0Jgj6zsBNq1Z8AQAxQQAigkAFBMAKCYAUEwAoJgAQDEBgGICAMUEAIoJABQTACgmAFBMAKCYAECxl9sHcMyMG0fnk2Q8XfP4yat8+etfLJ2TJB/87cjKGP68nPLqT3/N+3/48+27CY6Z46OHvPnhjzJu3SnwzfWcN72AfvF7TZLH763fYmNm6fdJkpxGjoflS8l42jCIfx5b9gGMY/1aPAFAMQGAYgIAxQQAigkAFBMAKCYAUEwAoJgAQDEBgGICAMUEAIoJABQTACgmAFDsxfYBzMtYe8X5SM5vjnz2u6+W3x1/ffXe2nz2TJ4+/X7e/vjjtfe2jyzvAkiSuf4K++dz5uLQ+nz+jVYt7wJIkpHMsb4nYcu1XOfyPoBxzC27CTwBQDEBgGICAMUEAIoJABQTACgmAFBMAKCYAEAxAYBiAgDFBACKCQAUEwAoJgBQ7MX2ASybyfFwylc/+XD5qNPj+lz1PI/Mdy2n6+Pzmef1Q1bXEiTJPGV5b0SSLd/JFnNkbPjrfdduWeB/IABQTACgmABAMQGAYgIAxQQAigkAFBMAKCYAUEwAoJgAQDEBgGICAMUEAIrdNlG86X3td2PH59lxxs5zdlj9jUZyPOwY5l8/Isl93XOrRjLP68d4AoBiAgDFBACKCQAUEwAoJgBQTACgmABAMQGAYgIAxQQAigkAFBMAKCYAUEwAoNht+wDuZa56JuNYP2ZcFwfO5/P755+HtNevh/9yL/fbLnd0j3gCgGICAMUEAIoJABQTACgmAFBMAKCYAEAxAYBiAgDFBACKCQAUEwAoJgBQTACg2L8ACDfqQGZlD2QAAAAASUVORK5CYII=;container=0;fontFamily=宋体;fontSize=15;" parent="1" vertex="1">
          <mxGeometry x="1520" y="455" width="80" height="80" as="geometry" />
        </mxCell>
        <mxCell id="dpxFrvmY2BpC3zV_ax-8-59" value="" style="shape=image;verticalLabelPosition=bottom;labelBackgroundColor=default;verticalAlign=top;aspect=fixed;imageAspect=0;image=data:image/png,iVBORw0KGgoAAAANSUhEUgAAAQAAAAEACAYAAABccqhmAAAGRklEQVR4nO3dMYtkWRnG8efcqhnEcXFdHHBVRAwM/ACG5ob7sfxqZhoIIghmBhrIsrs63XWPQTMgaGKfM3RPP79f1NHh1q2qf9/kfWv86te/mQE+PnP9q3tsuAzgIyUAUEwAoJgAQDEBgGICAMUEAIoJABQTACgmAFBMAKCYAEAxAYBiAgDFBACKXZ/6AnjZ5lg/Y9hY8b+N9ZvrCQCKCQAUEwAoJgBQTACgmABAMQGAYgIAxQQAigkAFBMAKCYAUEwAoJgAQDEBgGL2AfDhzOTy7nzqq3gw9uwmOG7rywnGnMniMfMYOV8fy+d4AoBiAgDFBACKCQAUEwAoJgBQTACgmABAMQGAYgIAxQQAigkAFBMAKCYAUEwAoJh9AHxQ41yfnz9fHcmGWf4d+wDm+st5mOHfcM6xYdeCJwAoJgBQTACgmABAMQGAYgIAxQQAigkAFBMAKCYAUEwAoJgAQDEBgGICAMUEAIrZB8CHM5Lzuj6EP247hueTHBsWArwwngCgmABAMQGAYgIAxQQAigkAFBMAKCYAUEwAoJgAQDEBgGICAMUEAIoJABQTAChmH8AuW344Psl4RjPru17Torlhp0CSzB3HXDYccls/YhdPAFBMAKCYAEAxAYBiAgDFBACKCQAUEwAoJgBQTACgmABAMQGAYgIAxQQAigkAFLMPYJcXNsc/zmSc6+fMDfPzW+b4d9lwT5IkO17ThkvxBADFBACKCQAUEwAoJgBQTACgmABAMQGAYgIAxQQAigkAFBMAKCYAUEwAoJgAQLHH7QPY8bvxL2x+/jm9nsu7c3lWfB7JPF7YLP9zsvqRm8nY8Ln1BADFBACKCQAUEwAoJgBQTACgmABAMQGAYgIAxQQAigkAFBMAKCYAUEwAoJgAQLHro2bhN8y+jznXZqIvR8bf/pHrb/+QjMvjz5kz15/8ODkWWjiS3N2S2+3xZ5wz55vX+eYXP8q4nY8/5/31vCBjw7qGZM9ugnnZsCNh/TIe7snCx+09TwBQTACgmABAMQGAYgIAxQQAigkAFBMAKCYAUEwAoJgAQDEBgGICAMUEAIoJABS7Pqfftf+/zGRcr7l+8mnmdaFjc+buh58l1+Pxg9pj5PjqXzn+eff4XQkzma8vGeeZR+1o+M+jNr2nO+bwj3eLuw2SjHP9QuYxMo/1+3Jen8f3ZSZb9j54AoBiAgDFBACKCQAUEwAoJgBQTACgmABAMQGAYgIAxQQAigkAFBMAKCYAUEwAoNj1qS/g0UYy72+5//LL5HJZOuryuz+tXcvtTD5/m/n9Tx/+foyZ5NWRZCzPeY957vkR+vVR/oz79UPm9Vi/J+dc300wknlZ/8rM57FSIIknAKgmAFBMAKCYAEAxAYBiAgDFBACKCQAUEwAoJgBQTACgmABAMQGAYgIAxQQAij3NPoCRjLuZcVsYWp9n5nff5Jsvfrk8+/7qq9vSGfN6yas//zWXP/4luTyyqefM/M63kh/8LFm5L0lur9a7Ps6svT/vXdevZR4bBuiPbPm0H3c79huMzLH4mubDe7TKEwAUEwAoJgBQTACgmABAMQGAYgIAxQQAigkAFBMAKCYAUEwAoJgAQDEBgGICAMWeZh/ATM7rSK4LM9Fj5Pj6XT75/d+X58Vv33uTrMxnz+T2+We5++nbtd0EI8ltw5D36qx5knlJ5uq/h5lc3q3vFDju1vY1JHm4txv2Coz7DTsSZjLG4jlzz74GTwBQTACgmABAMQGAYgIAxQQAigkAFBMAKCYAUEwAoJgAQDEBgGICAMUEAIoJABR7mn0AyZaZ9fPbr/P1z9+uX8r9ht98P8aWefNnZcdegQ33ZB6XDWck87Lh/dlwTzI37BRIsrpSIPEEANUEAIoJABQTACgmAFBMAKCYAEAxAYBiAgDFBACKCQAUEwAoJgBQTACgmABAsafbB/Cc7Jjj3zEnvsumefPl1zSS87X/Mf9l02dlbjjGuwPFBACKCQAUEwAoJgBQTACgmABAMQGAYgIAxQQAigkAFBMAKCYAUEwAoJgAQLGPfx/Ahtn3cb9hfv7y8Bv0y3bMij+n3QR8OBs++54AoJgAQDEBgGICAMUEAIoJABQTACgmAFBMAKCYAEAxAYBiAgDFBACKCQAUEwAo9m93JuYx6RGABQAAAABJRU5ErkJggg==;container=0;fontFamily=宋体;fontSize=15;" parent="1" vertex="1">
          <mxGeometry x="1430" y="455" width="80" height="80" as="geometry" />
        </mxCell>
        <mxCell id="dpxFrvmY2BpC3zV_ax-8-60" value="" style="shape=image;verticalLabelPosition=bottom;labelBackgroundColor=default;verticalAlign=top;aspect=fixed;imageAspect=0;image=data:image/png,iVBORw0KGgoAAAANSUhEUgAAAQAAAAEACAYAAABccqhmAAAHGUlEQVR4nO3dv45kRxnG4a9O98zsYls2AVhYQiSIhITMCaGvwHfkO+QSSAiwBBjW+2dmuk8RzKxkkXm+Qtuz7/NIK23SpTrn7P76JF/1+Obr72b9TONnf+LjN8eadS7q3s4Fmxn9G7Pq3l6KZc94wfPZFmwDeKYEAIIJAAQTAAgmABBMACCYAEAwAYBgAgDBBACCCQAEEwAIJgAQTAAgmABAsOOHmj//KOfnF7ik2fdRZvn/H5bdkwVnLXgDgGACAMEEAIIJAAQTAAgmABBMACCYAEAwAYBgAgDBBACCCQAEEwAIJgAQTAAg2PEps8kf2wz+CqvuySXNz7f3Mqu229OCjSy4ubNq7P119utje42x4npG1dycBwA0CAAEEwAIJgAQTAAgmABAMAGAYAIAwQQAggkABBMACCYAEEwAIJgAQDABgGD94eYP7JLm5y/Firn3h4UaN3eMqtN9jb/+rbfOvtf+u99UvbhpnwswV8zhb/3vzCX7mLPGub+ONwAIJgAQTAAgmABAMAGAYAIAwQQAggkABBMACCYAEEwAIJgAQDABgGACAMEEAIIdV/2u/YeyYv8rzhRYch/nrHF/7i9zdejN4D/upfb96Z8fo+p0rvMPP1SNxvfM3Gv7zxc17ufTzwOYVXXcal4fHv7eME6n3gJVVadTVffMhjGqDv3vb28AEEwAIJgAQDABgGACAMEEAIIJAAQTAAgmABBMACCYAEAwAYBgAgDBBACCCQAEOz5lFv6SzhBYMcu/xmzPmldVzetjf43uPRlV43av7fZU1VlrVtUfft/cTFUd359v0Luwcd843+C9zhkJVQ/39rT31tm2mq9e1fnv31dtve9wbwAQTAAgmABAMAGAYAIAwQQAggkABBMACCYAEEwAIJgAQDABgGACAMEEAIIJAAR70vD55czgr7HmfIPRHVevqjX3drs7V83GRY1R491djbe3j3P4T19nvrx5+ucfzebM+8NeasnzqcOhv8a29c6OGKPqeKjji5ve8ylvABBNACCYAEAwAYBgAgDBBACCCQAEEwAIJgAQTAAgmABAMAGAYAIAwQQAggkABOv/GP0HtmSW/7Tgd+O38fCnqX09Y9T2+l3VuXFNc9a8uar9i0+b5wpUzeOC+fkFj6fmrNG5lp+s01+juc6cVYet5icv21vxBgDBBACCCQAEEwAIJgAQTAAgmABAMAGAYAIAwQQAggkABBMACCYAEEwAIJgAQLDnfR7ArDWz/IcFPxw/Z9XenBWfVaO7RlXNMaoOjbbPWfO41bw6rJl/bxo1H55109wWfN8tWGIeq30947zXuDtVNf/pegOAYAIAwQQAggkABBMACCYAEEwAIJgAQDABgGACAMEEAIIJAAQTAAgmABBMACDYMz8PYNY4ndsz0XVesJXDVrV1NzKr9gXnGxy3/rx5jar75o2Zs8btqbfG4zpt21ajc0bCo/36ef+X+V/eACCYAEAwAYBgAgDBBACCCQAEEwAIJgAQTAAgmABAMAGAYAIAwQQAggkABBMACPash5vHrBrn2T8PYIlZs72RUbXiN+xrr9aBAKOqbu9ru++ftTAXzODXaG5ijKo3b6p+fNNbaxs1vvp1by+r7HvVeW8/H28AEEwAIJgAQDABgGACAMEEAIIJAAQTAAgmABBMACCYAEAwAYBgAgDBBACCCQAEe9bnAcytal4f+gvt+4K9rDmUYHZn32vB8Qizqrat5lV7K1WzcS7Be8dDb45/jKr9usbL2T5bYLx62/p8VdXsXs+smldb7Z+/bN9fbwAQTAAgmABAMAGAYAIAwQQAggkABBMACCYAEEwAIJgAQDABgGACAMEEAIIJAAR71ucB1Bg1rxacB1ArzhSYD38uwP6L694Co2rcnWvcnXuHC+yzxusF8/M/vumfKzBnzQXnPtTtXevj436vf//5t3X35Sc1zk/bz+nuUF/98fv607d/qft3vf/C3gAgmABAMAGAYAIAwQQAggkABBMACCYAEEwAIJgAQDABgGACAMEEAIIJAAQTAAg2vvn6u8sYYn/mxgXdxdmZ4f+J9jXtex3++bp3psDjOu3zAA5bzatjVWeZMWr/9Ka3jzFqvL6tcdqffl/GqHr7ruY//lW19b7DvQFAMAGAYAIAwQQAggkABBMACCYAEEwAIJgAQDABgGACAMEEAIIJAAQTAAgmABCs9+PiH4lLmuVvz71X1WgP4D9onytw2Or0q8/a+1j1fFadk9A1P3vRX+TzlzW+/GV7GW8AEEwAIJgAQDABgGACAMEEAIIJAAQTAAgmABBMACCYAEAwAYBgAgDBBACCCQAEcx5AXc6ceFU9/PZ7d4lF8/OXck7CRT2fj4w3AAgmABBMACCYAEAwAYBgAgDBBACCCQAEEwAIJgAQTAAgmABAMAGAYAIAwQQAgv0XKzJBBKcOAuMAAAAASUVORK5CYII=;container=0;fontFamily=宋体;fontSize=15;" parent="1" vertex="1">
          <mxGeometry x="1340" y="455" width="80" height="80" as="geometry" />
        </mxCell>
        <mxCell id="dpxFrvmY2BpC3zV_ax-8-61" value="" style="shape=image;verticalLabelPosition=bottom;labelBackgroundColor=default;verticalAlign=top;aspect=fixed;imageAspect=0;image=data:image/png,iVBORw0KGgoAAAANSUhEUgAAAQAAAAEACAYAAABccqhmAAAG/0lEQVR4nO3dzW4sVxmF4bWr+/j8RAkQBRRQhrmRSFwbd8NNAWKEopCQk9jHXZuBQxgw8y7U7aznmbu8u7r9uibf1+Orr/40cwVjXuXX/t/MMa59hJ/d0r29pftyK27p/dmufQDgegQAigkAFBMAKCYAUEwAoJgAQDEBgGICAMUEAIoJABQTACgmAFBMAKCYAECx87V+8VFz4rc0W/1LY5b/fx3xebul++oJAIoJABQTACgmAFBMAKCYAEAxAYBiAgDFBACKCQAUEwAoJgBQTACgmABAMQGAYlfbB3CUI2arj5jxPmovwRGv52bmzfeZ8/cPB1xn/RKHOR3webvM5Eb2CngCgGICAMUEAIoJABQTACgmAFBMAKCYAEAxAYBiAgDFBACKCQAUEwAoJgBQTACg2IvfB3CEm5mfP8j2uCdHrCdYnVmfM+NxcZh/Jvu7V5nbAe/REe/zfsDuiPMBb85MxgFn8QQAxQQAigkAFBMAKCYAUEwAoJgAQDEBgGICAMUEAIoJABQTACgmAFBMAKCYAECxF78PYNzI96wfYewzp+8/JIvH2c+n5Ws8HWjtZ8dlZvv2/doc/pyZ54+SV6e1HQfbyLyFf3cjycO+Nss/kvHhkvHD/fKOg1u4JcCVCAAUEwAoJgBQTACgmABAMQGAYgIAxQQAigkAFBMAKCYAUEwAoJgAQDEBgGIvfh/ArczyH2GOkcu7V+vXOS3ek5Fs95ds95flvQKPv/1k7QJJxkzGvniRy0xWZvCPMpLt4THjcX/+vR0jefiQ8f5H+wCA5xMAKCYAUEwAoJgAQDEBgGICAMUEAIoJABQTACgmAFBMAKCYAEAxAYBiAgDFXvw+gF+UccAsf5Lt4ZKsjL6PZDxcMh4e1/YBjJH5dn2/wX7UzocbWR2xvzlnrO4muDtlvL1bPosnACgmAFBMAKCYAEAxAYBiAgDFBACKCQAUEwAoJgBQTACgmABAMQGAYgIAxQQAir34fQBj3sB3vieZB82sL7+ekWz3l2Rl3nwm827L5Vdv1vYKJJkH3JZxG2/xkyM+b2Os7SaYyeWjcx5+83p5r4AnACgmAFBMAKCYAEAxAYBiAgDFBACKCQAUEwAoJgBQTACgmABAMQGAYgIAxQQAil1tH8Ahc/wzGZf168zz+tD6Ya/ncV+/zsha2meSbWRuY3kfwBHmLRziP7b1/5lzO+Dzdpl5+/f3a3sF4gkAqgkAFBMAKCYAUEwAoJgAQDEBgGICAMUEAIoJABQTACgmAFBMAKCYAEAxAYBi59V54ueaB/ziMefT/PzqTPT94gz+TPa7U+arbW1+fs7l73tP8tP3zy/elCN2E8xk+3BZu0aScdkX72syz1vm3eL7k2Q/38b/zLmN7Hen5evcxqsBrkIAoJgAQDEBgGICAMUEAIoJABQTACgmAFBMAKCYAEAxAYBiAgDFBACKCQAUO1/7AM828t+Z9dXVAnNxSHw+7SbIPpfnzedpvcljvyyfY+wH7CaYM+Phce0aP51l+fXcf0i+eVz7rIyR+btP1g6SZB6wg2NkPn3mFnkCgGICAMUEAIoJABQTACgmAFBMAKCYAEAxAYBiAgDFBACKCQAUEwAoJgBQTACg2MvdBzCTuSX76/XvSF+ee8/T97XPZHk3wRFnOcr63PpITuvvz1y/xNNugrvFC41kXPb1s4z1hQDjsme7vyx/3jwBQDEBgGICAMUEAIoJABQTACgmAFBMAKCYAEAxAYBiAgDFBACKCQAUEwAoJgBQ7Lz6vetXNUbmq/WGHXIL5gEXmjPj8YB58wNe0NxG5rYwbD6S8bjn9M2/1ubfty2Xv/4t88f7519n7hmffprxxe+Ty+X5Z5kz56+/fv7P52mO/4cvP8vlkzfJM3c/jA/J+y/3/OOPl2z3S8fxBADNBACKCQAUEwAoJgBQTACgmABAMQGAYgIAxQQAigkAFBMAKCYAUEwAoJgAQLHztQ+wah7wXetHGPOAIfwxsq9+h32SedqWvzc++8x45rz6z85b5uu75bOcvvjDs2fnkyRzZn/3OpeP79auk2S8u1v6+SS5+/Yx+ed3C4cYefuX+3z25++SlZ0N8QQA1QQAigkAFBMAKCYAUEwAoJgAQDEBgGICAMUEAIoJABQTACgmAFBMAKCYAECxF78P4GbMrM/PJ5mL891J1ncBJMk2ls8ykzx8/vHyUQ7ZtZCDdke8uZE/mV+/yfj8k+XLeAKAYgIAxQQAigkAFBMAKCYAUEwAoJgAQDEBgGICAMUEAIoJABQTACgmAFBMAKDY+ZDZ8Ws6ZlR82TyNzNNLv5m36ZA5/l+gI+6LJwAoJgBQTACgmABAMQGAYgIAxQQAigkAFBMAKCYAUEwAoJgAQDEBgGICAMUEAIr9Gy9VR8ugmDI6AAAAAElFTkSuQmCC;container=0;fontFamily=宋体;fontSize=15;" parent="1" vertex="1">
          <mxGeometry x="1250" y="455" width="80" height="80" as="geometry" />
        </mxCell>
        <mxCell id="dpxFrvmY2BpC3zV_ax-8-65" value="" style="shape=image;verticalLabelPosition=bottom;labelBackgroundColor=default;verticalAlign=top;aspect=fixed;imageAspect=0;image=data:image/png,iVBORw0KGgoAAAANSUhEUgAAAQAAAAEACAYAAABccqhmAAAHmElEQVR4nO3dwW4kVxmG4f9Ul7tt7JmIBAQRm0hZARKriJvhlriZXEYWbFmyRiSCMExmPHZXHRbOgBSyYPqU1C1/z7OZ2fRx1SnrdW3+0+33f/hjrw/14Z/4X22DNaq2uZYtbHU/l+RS9vaSbPGcL2hfp3NfAHA+AgDBBACCCQAEEwAIJgAQTAAgmABAMAGAYAIAwQQAggkABBMACCYAEEwAINh8ttnkC5qJ3sRW9/PM5s2f3TkJl3QWxga8AUAwAYBgAgDBBACCCQAEEwAIJgAQTAAgmABAMAGAYAIAwQQAggkABBMACCYAEGw+9wXwA89slr8tY5/vrer6H8eaHvvw9fTR++m9Dl+/GV5juT1Uv5pOftZtrXq83dX9z/fV1rFfGG8AEEwAIJgAQDABgGACAMEEAIIJAAQTAAgmABBMACCYAEAwAYBgAgDBBACCCQAEm0+asb6k70i/pPn5LWyxL1vtycg6U6vpX/f14ss/VW8Df2f6UusXv6l6eVe1rCeuUbUeplpudsN78/rzj8YWaFXz62X4fIPWWx2+PQ7fjzcACCYAEEwAIJgAQDABgGACAMEEAIIJAAQTAAgmABBMACCYAEAwAYBgAgDBBACCzc9unv5cnuH5Bm3kWtZe7eqqpt/+uvo0sDm9V7++rt5PPAvgP+tUtaUP7+9uHVugT63233xXu+8eq07dl9aq3j1Ue/3m6f8DvAFAMAGAYAIAwQQAggkABBMACCYAEEwAIJgAQDABgGACAMEEAIIJAAQTAAgmABBsPttPvqC5901c0v2Mnk3QqnZve81v1rG1etW7T+/GrqVXLdfT2JkC36/TBmf5q6rW/eB1tKp3v7yrNnq8wVTVd+OHUHgDgGACAMEEAIIJAAQTAAgmABBMACCYAEAwAYBgAgDBBACCCQAEEwAIJgAQTAAg2LzZ99p/qEuan9/CufbxR0zHPrS/fddq/+27uv7b/ekz572qz1O9/dXt8LNua6+2jNxQVZ9bLTfT+O/dBmct9On7ixpYY7pfav/qoXobuyBvABBMACCYAEAwAYBgAgDBBACCCQAEEwAIJgAQTAAgmABAMAGAYAIAwQQAggkABJvP9pO3mp/f4FyBtsEal3K8QW9VN399V9NjP32Pe9W6n+r+08FZ/laXszGttvmdG72frfajtVp3u+F78gYAwQQAggkABBMACCYAEEwAIJgAQDABgGACAMEEAIIJAAQTAAgmABBMACCYAECw850HMDgX3adWV/98qJd//vvp32H/3rwb+nhbez3+9KaWF4eq9cQb61XrVau3n8xD5xO0qur7Xa3T4HkAh6mWw3QR8/zLYRqf5e9VbRm/md42OFRg9GyCVtV3rdaD8wCAAQIAwQQAggkABBMACCYAEEwAIJgAQDABgGACAMEEAIIJAAQTAAgmABBMACDY2c4DaFVjs+a9qk2t+s1++DyA6dWbqn76xbTjWusnh3p4MVdb1pPX6RuMvVdVrVdTtWls9r23Debne9X0cPp+vNf2G23MqFZ1PIxfyHrVnjZ45FJ2T895lDcACCYAEEwAIJgAQDABgGACAMEEAIIJAAQTAAgmABBMACCYAEAwAYBgAgDBBACCne08gF41OOPda9nv6uEXd6Oj1bW7OwydTdDWXseX+1p3VW3k++NbVRscn++t1f6bt09z+KdeSu+1/OSqltv90DkJ1aqON7vTP/9+mXXwXIKqp/MjRo8m2OD5VFW13sfOwqh6+vwGZyR4A4BgAgDBBACCCQAEEwAIJgAQTAAgmABAMAGAYAIAwQQAggkABBMACCYAEEwAINjZzgNoVUMz0X2aavfqdR2++kv1q8GZ8599XDWd3sK29Frm2+pX09Dset+1WvZtbF/a0zp91wbOA2jVqmo6LoPPqFWfa3j2vfXxNapVrfP4AP38dvxAgHbsT2cCDHj/nEd5A4BgAgDBBACCCQAEEwAIJgAQTAAgmABAMAGAYAIAwQQAggkABBMACCYAEEwAINjZzgPoVUPfb977WuvddR1/93n1aWwu+uGjq6Frab3q8Waq5TA2y//fBUeupdfrz27HL2Gpmo5jN9PWXoevH4e/x36dp7E1etV6aLXeDD6fXtUeRg83qJoe16FzI6qe9rY9LMN76w0AggkABBMACCYAEEwAIJgAQDABgGACAMEEAIIJAAQTAAgmABBMACCYAEAwAYBgp50HcOaZ9/cfX66nevXZzQYXs4H2g39PtcHe9vGvja8+V63z2EJtbTW9nIf3ZPS8h6dFqqYNZvnvPx4/QmN67NXWwUXaNs/ZGwAEEwAIJgAQTAAgmABAMAGAYAIAwQQAggkABBMACCYAEEwAIJgAQDABgGACAMHmTWb7T3Gun/sj2hYz+ONLPDt9qnp4uRtbpFXNb9ax+flete5bLYdp+EFtMYO/7DdYZCPeACCYAEAwAYBgAgDBBACCCQAEEwAIJgAQTAAgmABAMAGAYAIAwQQAggkABBMACDaf9N3tht/5P/UN/sQ83m70d6pXnfT7/ox5A4BgAgDBBACCCQAEEwAIJgAQTAAgmABAMAGAYAIAwQQAggkABBMACCYAEEwAINi/AU6CY/FEs+B+AAAAAElFTkSuQmCC;fontFamily=宋体;fontSize=15;" parent="1" vertex="1">
          <mxGeometry x="980" y="360" width="80" height="80" as="geometry" />
        </mxCell>
        <mxCell id="dpxFrvmY2BpC3zV_ax-8-67" value="" style="shape=image;verticalLabelPosition=bottom;labelBackgroundColor=default;verticalAlign=top;aspect=fixed;imageAspect=0;image=data:image/png,iVBORw0KGgoAAAANSUhEUgAAAQAAAAEACAYAAABccqhmAAAGiklEQVR4nO3dsY4cxxmF0Vs9O1rSBCFYTuTQr+DQr+Pn8as5duDccGDYFrAUuTvT5WApJVa01QJnec8BNpxCzUzvN53U3+OPf/7LDPxajri6xgFr8Iu2L70B4MsRACgmAFBMAKCYAEAxAYBiAgDFBACKCQAUEwAoJgBQTACgmABAMQGAYgIAxe6+9Ab4yt3SWf5bmXxxQ5+JOwAoJgBQTACgmABAMQGAYgIAxQQAigkAFBMAKCYAUEwAoJgAQDEBgGICAMUEAIqZB8CvZybbZXGNkXzzsGdcFw7zz2Q/j1zvx9pMgJnc//e6sMDnZe5G5spMgJlc70c+vd8yFmccuAOAYgIAxQQAigkAFBMAKCYAUEwAoJgAQDEBgGICAMUEAIoJABQTACgmAFBMAKCYeQD8OkayPe753V//k7m9/PD72Gce/vA++5u7ZL7w8PvM2vn7nzeTfPr2tLzG3cPMdpnJwp7uPs6cntZnE7gDgGICAMUEAIoJABQTACgmAFBMAKCYAEAxAYBiAgDFBACKCQAUEwAoJgBQTACgmHkA/LKZjH3h9SMZc+Ty27fLZ/HPD3vy4fHlW5nJ09stj+9PGS8cKfCTbfEI/tyS+x+esn3aXz4P4HRK/vmvjL/9PRlr/8LuAKCYAEAxAYBiAgDFBACKCQAUEwAoJgBQTACgmABAMQGAYgIAxQQAigkAFBMAKGYeAP9vJNtTcvq09gz7sSeP357X9jKTy7stc1sbKjC3z39ru8m++h8zko/fnddmLcxk//77PP7p9+vzDdZeDrxmAgDFBACKCQAUEwAoJgBQTACgmABAMQGAYgIAxQQAigkAFBMAKCYAUEwAoJh5AF+h7ZKlg+9zS84Pe+5/uGYu/ETMLXl6f1o+hL86C+BIK59Hkuf5Cj/9Lawx9pnzh8W9xB0AVBMAKCYAUEwAoJgAQDEBgGICAMUEAIoJABQTACgmAFBMAKCYAEAxAYBiAgDFzAP4ysyRvPvHY7an+eIz52MmT++2/Pjdafn5888LHrDGjdiu62vMZHkewOnjnt/8+7I8n8AdABQTACgmAFBMAKCYAEAxAYBiAgDFBACKCQAUEwAoJgBQTACgmABAMQGAYgIAxV79PICxf+kdPJurz3z/eaG1l48k17en7OeXzwPITPbzyBi3cZB/v/v8+S46YrbB6vn7JM8/uyt7Gc/fz+P7u+Vrzh0AFBMAKCYAUEwAoJgAQDEBgGICAMUEAIoJABQTACgmAFBMAKCYAEAxAYBiAgDFXvc8gJnl8/OHuY2j80mSy/3IOK9vaHta/3CPOD8/LiNHjCY4Yh7A9by+Ru7G8mU7TyP7AXtxBwDFBACKCQAUEwAoJgBQTACgmABAMQGAYgIAxQQAigkAFBMAKCYAUEwAoJgAQLHXPQ8gx5zxPmSmwDjgGfYzGfv6Ps4Pe8ZlvnxGwUz2+5Hrm235s9nvbmRQwkwy17/osa+/n0Ou2RxwvcUdAFQTACgmAFBMAKCYAEAxAYBiAgDFBACKCQAUEwAoJgBQTACgmABAMQGAYgIAxV79PIAjzvJv18VFZrJv4/l89spSI5mnta1kJNc3I+O6eFh8JOOyvpdDzqzvOWhmw/pm7j4eMFNgzvX3M5J5wPtxBwDFBACKCQAUEwAoJgBQTACgmABAMQGAYgIAxQQAigkAFBMAKCYAUEwAoJgAQLHXPQ9gJPsB7+CQZ9ivzgI4ykye3m7rz6CfBzzHfibnD/viIsl+Gs+f78pWtmSe1r/nufqTOZLTj8lYnEEx9plxWb/g3AFAMQGAYgIAxQQAigkAFBMAKCYAUEwAoJgAQDEBgGICAMUEAIoJABQTACgmAFDsdc8DSJbPiSfJWD+y/jwK4IC9HDFTYD8fM99gri4zk7ndzm/M8nyDkTy+X3w/I7l+M5evuTmSeVpbI3EHANUEAIoJABQTACgmAFBMAKCYAEAxAYBiAgDFBACKCQAUEwAoJgBQTACgmABAsZfNAzjgzPohZ+eTY/bylTlkvsGW9e9oJJc361/06XEun+WfW3K9W9/L8oyEJJf7oy7+de4AoJgAQDEBgGICAMUEAIoJABQTACgmAFBMAKCYAEAxAYBiAgDFBACKCQAUEwAo9rJ5ALdznPmYvRw1U+BG5iTsBzw3/jAHvJ/rDZ2fP8QNzbBwBwDFBACKCQAUEwAoJgBQTACgmABAMQGAYgIAxQQAigkAFBMAKCYAUEwAoJgAQLH/AeUl8Jt3klJUAAAAAElFTkSuQmCC;fontFamily=宋体;fontSize=15;" parent="1" vertex="1">
          <mxGeometry x="1070" y="360" width="80" height="80" as="geometry" />
        </mxCell>
        <mxCell id="dpxFrvmY2BpC3zV_ax-8-69" value="" style="shape=image;verticalLabelPosition=bottom;labelBackgroundColor=default;verticalAlign=top;aspect=fixed;imageAspect=0;image=data:image/png,iVBORw0KGgoAAAANSUhEUgAAAQAAAAEACAYAAABccqhmAAAGf0lEQVR4nO3dv45cSRnG4bdO98zYXsvsBmyyBAhtTsitcFHcEteBkMiIEEIWaP1ne6ZPEYw3JJk6yGO/z5O7VGd65tcn+T6PP/zxTzNApe1zXwD4fAQAigkAFBMAKCYAUEwAoJgAQDEBgGICAMUEAIoJABQTACgmAFBMAKCYAECx8+e+AHxJxjPanjHH+hneAKCYAEAxAYBiAgDFBACKCQAUEwAoJgBQTACgmABAMQGAYgIAxQQAigkAFBMAKGYfAP8/Mzk9rA3Qz23k1d/fZft5T1bm30eSbXGAfibbh8vaGWNkvPuYPFyf/jz7zP7mRS4/fJdx3Zeu4w0AigkAFBMAKCYAUEwAoJgAQDEBgGICAMUEAIoJABQTACgmAFBMAKCYAEAxAYBi9gHwP42VUf5tZPtwyZs//zXztPA9s+/Zf/dD5su7ZD7xQnNmf3HOw+vbp5/xy1Gnl0v/PiM5/+dVtsvifoMkp/f3awfEGwBUEwAoJgBQTACgmABAMQGAYgIAxQQAigkAFBMAKCYAUEwAoJgAQDEBgGICAMXsA3hmlmbwP5mLc+ZJMvZkuy5cZsyMccr9739cm3sfI6e377K9ff/0c/aZvLnLeHHO2Nd+wNftgO/MLZmn8fTnOZ0y/vGvjL/8LRlrf8LeAKCYAEAxAYBiAgDFBACKCQAUEwAoJgBQTACgmABAMQGAYgIAxQQAigkAFBMAKGYfwDNzxCz/spFsDzOnj4v/h/1Mri9Pa3eZyeW3v8rcFn8wez7tAlg7Z79Z/4DuX5/X9z68/nXmj98v38UbABQTACgmAFBMAKCYAEAxAYBiAgDFBACKCQAUEwAoJgBQTACgmABAMQGAYgIAxewD+AqdHmayMG8+t5Gbnx5y++/L0hz+3EYu390u3eUXj7P8Tze3Y2b5j3iWI4zrzOmyuK8h3gCgmgBAMQGAYgIAxQQAigkAFBMAKCYAUEwAoJgAQDEBgGICAMUEAIoJABQTAChmH8DXZiR3b+8zHubSrPg8jVy+vVu+yxxjeWZ9zCMWCozM01ie51/dS5Ak2UaWHmnk03Os38UbABQTACgmAFBMAKCYAEAxAYBiAgDFBACKCQAUEwAoJgBQTACgmABAMQGAYgIAxewDeGbGAePmcxuPaX/qHP5M9vPIfvs85uf32y1zdafAnmyX9bvM0/IRj8+y+DzzPDJfrV/GGwAUEwAoJgBQTACgmABAMQGAYgIAxQQAigkAFBMAKCYAUEwAoJgAQDEBgGICAMW++H0AR8zPH2F1Xv1I+zYylj/ZkfGweMRMTj9fl8+4zvm442DBuM6M+7k2hz+ShwNm8OcYy/sAkiTb+i+/NwAoJgBQTACgmABAMQGAYgIAxQQAigkAFBMAKCYAUEwAoJgAQDEBgGICAMUEAIp98fsADjGPWCqwPuM99uT8YV+eWT9/uGbs68+0uuNgbiP3394ki1eZB3xNjTGyzcV9AEnG4nqDx7s8kyUW8QYA1QQAigkAFBMAKCYAUEwAoJgAQDEBgGICAMUEAIoJABQTACgmAFBMAKCYAEAx+wDyOIe/bDtifj65/2atyXMkd/+8Zrss7hXYRua2cMBM5nlkP4/lfQDbw1w+43E/wvo5N+/WFwLMbSz/rhzFGwAUEwAoJgBQTACgmABAMQGAYgIAxQQAigkAFBMAKCYAUEwAoJgAQDEBgGICAMXsA0gyT+vD2c9lvnvM5N1vXq4fNB/PWrrLntz8tD4/f4R5GtnvtrV9ADM5f1x/nu2yJ/vCRWay3225vLnNmGsfkjcAKCYAUEwAoJgAQDEBgGICAMUEAIoJABQTACgmAFBMAKCYAEAxAYBiAgDFBACKffH7AI6Yw1+dez/SEXfZ9qzNvSeZW7Kf1364YybX2/XvmNWZ9+TxeeYBX3fvv79dPmN7mId8znMkM2ufkTcAKCYAUEwAoJgAQDEBgGICAMUEAIoJABQTACgmAFBMAKCYAEAxAYBiAgDFBACKffH7AA5xwLx5MrI4mp3kmP0G+xFZP+hZ7r9Zv8x2ncv7DTKSuR3wUAfYb57HPRJvAFBNAKCYAEAxAYBiAgDFBACKCQAUEwAoJgBQTACgmABAMQGAYgIAxQQAigkAFLMPIEnGAfPZz2fE+9nMvR9lP31dz3OUccAaC28AUEwAoJgAQDEBgGICAMUEAIoJABQTACgmAFBMAKCYAEAxAYBiAgDFBACKCQAU+y85qQfjGixyUAAAAABJRU5ErkJggg==;fontFamily=宋体;fontSize=15;" parent="1" vertex="1">
          <mxGeometry x="1160" y="360" width="80" height="80" as="geometry" />
        </mxCell>
        <mxCell id="dpxFrvmY2BpC3zV_ax-8-70" value="" style="shape=image;verticalLabelPosition=bottom;labelBackgroundColor=default;verticalAlign=top;aspect=fixed;imageAspect=0;image=data:image/png,iVBORw0KGgoAAAANSUhEUgAAAQAAAAEACAYAAABccqhmAAAGdUlEQVR4nO3dwY4cVxXH4XOr2+PYcmSIEFKAJRJ7WIYdL8ED5cHY8wSwDEhZgASKQNgZd10WE6EIwabuiabS/++TvK2p6mr/ujbn1PjNrz+fBf/LPMlXY4znPoNec1Z1fLQNH8u2fgjg+0oAIJgAQDABgGACAMEEAIIJAAQTAAgmABBMACCYAEAwAYBgAgDBBACCCQAEuz7bXz7LrHmXe5tZr7rPazqLjo+24f54AoBgAgDBBACCCQAEEwAIJgAQTAAgmABAMAGAYAIAwQQAggkABBMACCYAEEwAINixfQD3NsvPd2bc9p5jLH7l5jZqXtZ/77bH2/Ixap/r13MZNR8uy8fxBADBBACCCQAEEwAIJgAQTAAgmABAMAGAYAIAwQQAggkABBMACCYAEEwAIJgAQLBj+wC8N/7czrKvYc7a/vW4eIyq/aNr1WXxOze++bdoXht+M+f6PoAaY/0Y5QkAogkABBMACCYAEEwAIJgAQDABgGACAMEEAIIJAAQTAAgmABBMACCYAEAwAYBgx/YBdMybd+0UOMvs+z1avkej5otLy6nUvnifx+j5uVs9j6oaHfsAata4LZ+KJwBIJgAQTAAgmABAMAGAYAIAwQQAggkABBMACCYAEEwAIJgAQDABgGACAMEEAIId2wfQNcvfoeNcOnYKnGktQdftafhc5rZ+MvOy9V3TqobrqX39EF08AUAwAYBgAgDBBACCCQAEEwAIJgAQTAAgmABAMAGAYAIAwQQAggkABBMACCYAEOzYPoCO+fl7c5Z59SbjNmvcFgfXR9V+vTSczPohusyG/RPz0nNBo+H/oScACCYAEEwAIJgAQDABgGACAMEEAIIJAAQTAAgmABBMACCYAEAwAYBgAgDBBACCXY/M9o8P6y84n5dR1TBbXQ2rCZbn3qtqbqPn3fENxm1v+Vxmw/V0zKx3zODfnTmrdvsAgAUCAMEEAIIJAAQTAAgmABBMACCYAEAwAYBgAgDBBACCCQAEEwAIJgAQTAAg2HUcmCmel6ZurIwzj1Hj3dd1/fJv63P42+L1jFHz3buq9++P7ziYs+arl3X7+c+q9vX9BGdxd7P8HZfTsKuhiycACCYAEEwAIJgAQDABgGACAMEEAIIJAAQTAAgmABBMACCYAEAwAYBgAgDBBACCXQ+9A75hxnvs8+kd5yvHmPU0y7+yD2BWffXLT2u+2A7Pac/rVq//+Nd6+ae/17webOqcVQ8vqmNYvGVfwz7ryK6I/7Z9OM9ug9kwy3/4/n7biVYkeAKAYAIAwQQAggkABBMACCYAEEwAIJgAQDABgGACAMEEAIIJAAQTAAgmABBMACDYtWO2/4in2eyFv71tNb9+X/PPX1SNy8KJzPropz94msU/up9gG3V5rJqvXh7fTTBn1cP1NO+OH7Na9gGs7nyo+mYGf/V72rTf4CS3p40nAAgmABBMACCYAEAwAYBgAgDBBACCCQAEEwAIJgAQTAAgmABAMAGAYAIAwQQAgl2f5a+OqvG4L81nj3mrDz98U//47WfLc97vPtlqLqRwf3mtt7/7S73+4suaDwd3E+yz6s2rqp98UnXbj59MVc8M/qjjuw2+bVv/jZkdOyuafuq2x8V7czKeACCYAEAwAYBgAgDBBACCCQAEEwAIJgAQTAAgmABAMAGAYAIAwQQAggkABBMACPY8+wDm0zvfl6bWt622r/5Zb3//h6rLWsfefvrjtbn1OWt/83HdPvvR+iz+6i6ALtuo2bAPYHxYv55tb/hMmq6nGq5n3GbLzoYOngAgmABAMAGAYAIAwQQAggkABBMACCYAEEwAIJgAQDABgGACAMEEAIIJAAQTAAh2bB9Axyzz6jvf56z58eu6/eoXy6fS8c73eRlVNasaRs5PY/UeVVU1zODvi/se/qPhcubDZf0gXRr+G3oCgGACAMEEAIIJAAQTAAgmABBMACCYAEAwAYBgAgDBBACCCQAEEwAIJgAQTAAg2PXZ3lN+kvejV1XVbV+brZ5VNbaqy1if0e74XNo+2vUDzYZ9APwfHesa1g8BfF8JAAQTAAgmABBMACCYAEAwAYBgAgDBBACCCQAEEwAIJgAQTAAgmABAMAGAYNeWd8AfcaZ9APfmTCP4z/X9+q7c2ffWEwAEEwAIJgAQTAAgmABAMAGAYAIAwQQAggkABBMACCYAEEwAIJgAQDABgGACAMH+DatGAXjPczPvAAAAAElFTkSuQmCC;fontFamily=宋体;fontSize=15;" parent="1" vertex="1">
          <mxGeometry x="1520" y="360" width="80" height="80" as="geometry" />
        </mxCell>
        <mxCell id="dpxFrvmY2BpC3zV_ax-8-72" value="" style="shape=image;verticalLabelPosition=bottom;labelBackgroundColor=default;verticalAlign=top;aspect=fixed;imageAspect=0;image=data:image/png,iVBORw0KGgoAAAANSUhEUgAAAQAAAAEACAYAAABccqhmAAAGZklEQVR4nO3dva4kVxWG4bWren40YBnGkkVmIUsgkZIhk3Ar3Aq3wTURO7VwgEC2xxJgHU7XJhjGIDmrvUT3nO95Aod7qruO365krRq/++0fZgH/N+OO/o/bbn0BwO0IAAQTAAgmABBMACCYAEAwAYBgAgDBBACCCQAEEwAIJgAQTAAgmABAMAGAYJdbXwCkmePWV/BfngAgmABAMAGAYAIAwQQAggkABBMACCYAEEwAIJgAQDABgGACAMEEAIIJAAQTAAj23u8D6HjX+j3NZz8149pwg7o03OfxeKyfMWfV4tcyt1Hz+b58jicACCYAEEwAIJgAQDABgGACAMEEAIIJAAQTAAgmABBMACCYAEAwAYBgAgDBBACCvff7AMzy/1DHjoSqhu92ztq+e1w8o+p4uVdtHcP862fMy/pv5uxakXCsH+QJAIIJAAQTAAgmABBMACCYAEAwAYBgAgDBBACCCQAEEwAIJgAQTAAgmABAMAGAYO/9PoCnpmuW/y6MUcfLpj+x1e+la29Ew/0Zx1xfCjBGzYYdCZ4AIJgAQDABgGACAMEEAIIJAAQTAAgmABBMACCYAEAwAYBgAgDBBACCCQAEEwAIZh9ANc3gd730veMd9l2z7x06rqXhO2nTcSlbrd+kWTWuR8ulAKEEAIIJAAQTAAgmABBMACCYAEAwAYBgAgDBBACCCQAEEwAIJgAQTAAgmABAMPsAujTNrHfM8nftNxjH+kFzX/+Nuaf9BqNhIcB8e9C6sf7degKAYAIAwQQAggkABBMACCYAEEwAIJgAQDABgGACAMEEAIIJAAQTAAgmABBMACDYqX0ALXPiY7TMRHfMvne8Z31u437eY99wf6r+c4/uQMt+g2raKzAbLqbj8zTdGk8AEEwAIJgAQDABgGACAMEEAIIJAAQTAAgmABBMACCYAEAwAYBgAgDBBACCCQAEu5yatW6YEx9Va3PR21bj27/X9vkXVSvvoJ+z5i8+qbps569n32r78m9VX72p2k5eyzFrvnpR1199UrW6n6BrjL9pDv9etOwV6NiR0LKXoFr2PngCgGACAMEEAIIJAAQTAAgmABBMACCYAEAwAYBgAgDBBACCCQAEEwAIJgAQTAAg2KXlneknjGOuzZvPo2rfa/voddW28CHmrG8+/aDm8/P7AOazrV5dv6uX/3ioeTnZ1DmrXjxf/16qembW5/f/WdMwsz6Oo+U7mSt/J+90nHFHPAFAMAGAYAIAwQQAggkABBMACCYAEEwAIJgAQDABgGACAMEEAIIJAAQTAAgmABDscrN/eXWsehs1Hx7q8c9fVu37+XPmrOdvPq754tnbmfwzR1xm7Q/H+mcaVXPU8jmjYYy/5qxxPdbPaZifn3vD79TR83nmtvC31qlpLYEnAAgmABBMACCYAEAwAYBgAgDBBACCCQAEEwAIJgAQTAAgmABAMAGAYAIAwQQAgt1mH8CoGg9HjcfzM/TjmPWv16/qze9/U+O6NgD/8OF4O4d/0vHyUj/54p+1//UvdWwnv9LjqPrgVdXPf1ZV1/MX02WMnjn8DqNh+H0bNRsWJbTsFOj4PFU1Tu6v+F93coeBWxAACCYAEEwAIJgAQDABgGACAMEEAIIJAAQTAAgmABBMACCYAEAwAYBgAgDBbrMPYFbNZ3vNZwvvWt+32r7+tl7/8U9VY+GcOWv/5adVl0vV2fnqOev40U/r+tnH589457q+C2Blt8H3RtVYPWhWjcf1zzMel4+ouY2aW8MXczTM4DfM8XfxBADBBACCCQAEEwAIJgAQTAAgmABAMAGAYAIAwQQAggkABBMACCYAEEwAIJgAQLDb7AOohpn146j68MdVn/16+VoeG2a85zaqRvW8y/5OLN+jUVX7+m9My/R807059oXdE+8u5X7WAXgCgGQCAMEEAIIJAAQTAAgmABBMACCYAEAwAYBgAgDBBACCCQAEEwAIJgAQTAAg2Kl9AB3zzC3vsG865+lM8L/VNW/e8d3Off2Qe/o8T40nAAgmABBMACCYAEAwAYBgAgDBBACCCQAEEwAIJgAQTAAgmABAMAGAYAIAwQQAgp3aB3BPc9Uds+Lb47F8xty3ltn3lhn8O7o/HZ7a57knngAgmABAMAGAYAIAwQQAggkABBMACCYAEEwAIJgAQDABgGACAMEEAIIJAAQTAAj2b6kA9dBv8EPAAAAAAElFTkSuQmCC;fontFamily=宋体;fontSize=15;" parent="1" vertex="1">
          <mxGeometry x="1430" y="360" width="80" height="80" as="geometry" />
        </mxCell>
        <mxCell id="dpxFrvmY2BpC3zV_ax-8-73" value="" style="shape=image;verticalLabelPosition=bottom;labelBackgroundColor=default;verticalAlign=top;aspect=fixed;imageAspect=0;image=data:image/png,iVBORw0KGgoAAAANSUhEUgAAAQAAAAEACAYAAABccqhmAAAHzklEQVR4nO3dvY4cRRSG4e9U98ysbRkBtnCCJUghIiUgIuAiuCCuCRFyA3AFJEgIhEHG9v5Mdx2C8QISkfuUtOv93iefUnfN7LudnOr44qtvUm8o3vgT/5dRX0Macy0jjLqfEW7LnkiS+oCLaWM297Z8R9FTqm5LSIr6DbXyCgDeWgQAMEYAAGMEADBGAABjBAAwRgAAYwQAMEYAAGMEADBGAABjBAAwRgAAYwQAMEYAAGPzrZodx60yZH5+qi9y136jOeh8gxF4AgCMEQDAGAEAjBEAwBgBAIwRAMAYAQCMEQDAGAEAjBEAwBgBAIwRAMAYAQCMEQDAGAEAjM03fQF3xaiZ9REz+EPm+EdIabrq5WXasUtZ2+DoqViK1xLSeqj/ycSaiuL9ZAvlvknF3x1PAIAxAgAYIwCAMQIAGCMAgDECABgjAIAxAgAYIwCAMQIAGCMAgDECABgjAIAxAgAYIwCAsXnL7Phtel/7iNn3Efdza2bwJU3HXp4TV0gZhZuKkM4vNX3/gxSF/zO5qn/2ifTOA6lvn+fPFtJu2n4d/yxU3NiQYlkVvTrIH1KI8wAAbEcAAGMEADBGAABjBAAwRgAAYwQAMEYAAGMEADBGAABjBAAwRgAAYwQAMEYAAGMEADA2b5qFr84yS//OMxfdlln+EdcRPTW9WMr7krtWX6P6/fRUPjjo+defl2bWs4Ue/vRK86vj9u8ppZyb+j7K8/PlOX7pdD5Cq60TknTcfj7CNZ4AAGMEADBGAABjBAAwRgAAYwQAMEYAAGMEADBGAABjBAAwRgAAYwQAMEYAAGMEADBGAABj86ZPtRED9PUlpFs0y7+mYq2/O359sO0r+a+cipsSUrvsml4WziaIUBwX3fvxNykK19NTy9PHWs/2UlYOFpBixPz8UlwjpLhYFGv9Wkr78RpPAIAxAgAYIwCAMQIAGCMAgDECABgjAIAxAgAYIwCAMQIAGCMAgDECABgjAIAxAgAYIwCAsXnLPP2Q+fkBa0iSBryvPUaMZrdQ7uuHE4w436AtKVVG56em6dkL7X75Uzlt/B+Rkuam9ekH5bn13E9KZe0MiZBiwOauh6m8RkxNMWCWPyvnLLzGEwBgjAAAxggAYIwAAMYIAGCMAADGCABgjAAAxggAYIwAAMYIAGCMAADGCABgjAAAxggAYKz+MvqblFJbRx0sUJelgfVBQto9O1csffv8fEq5m3X8+EnpXAGF1Pf1n1ifW+0sgOvLGTCDHwPOn1BKWTiDItbU+ZOdfv/07HT2QwFPAIAxAgAYIwCAMQIAGCMAgDECABgjAIAxAgAYIwCAMQIAGCMAgDECABgjAIAxAgAYIwCAsU3D2iPeYR+99g770xpSFOehJSmn+g3Fmorq2QQh9Va8lpDUQpoKbU8p50n9MJe/o5xH/FgGLJE5ZJa/V/b1+lpa8bcf0uGPVU+/e17eG54AAGMEADBGAABjBAAwRgAAYwQAMEYAAGMEADBGAABjBAAwRgAAYwQAMEYAAGMEADBGAABj9Ze336TQkISV5/h1OlMgq7P8kqJ6KSn1w07K+tkE5X3J1PRiqa0hKfdNitreZhv0/bT6byWyeB5AnrYjp+A8AADbEQDAGAEAjBEAwBgBAIwRAMAYAQCMEQDAGAEAjBEAwBgBAIwRAMAYAQCMEQDAGAEAjN3ceQBRn2XWgPe93zkhxeWiqOxNSHG1Kq6W2nfUQv3hWW32XTp9vnK+QUjtclVcrbX7idDVo/uFBV5LKYqbkpI01c834AkAMEYAAGMEADBGAABjBAAwRgAAYwQAMEYAAGMEADBGAABjBAAwRgAAYwQAMEYAAGMEADB2c+cB9FSMmBO/awbsSe5a+ayEnJvi3q52LSH13VRbQ1K24tx7hJoWxXE9nUOxeR1pulhq1yIpjmvtvIaU+tmkq3cOiso5CeIJALBGAABjBAAwRgAAYwQAMEYAAGMEADBGAABjBAAwRgAAYwQAMEYAAGMEADBGAABjBAAwdnPnAUhD5vmzMt99bdAuVGezJQ3Zk35WvKGQ4tjVjl2qbG+mpr8uatcinWbnq/uydum41O6nhfq790qX0Y7Sz18edP6kKdZta2QP3X/vXI8++lXrWvsfzhMAYIwAAMYIAGCMAADGCABgjAAAxggAYIwAAMYIAGCMAADGCABgjAAAxggAYIwAAMYIAGDs5s4DaKGs5ifHzOAPOVNgkBH303etNvcuKVpIU3GRnmoXa/la+hzlNdRCOdVm+cvXIKnvQx9++1JROWshJC1dcdGk4m+XJwDAGAEAjBEAwBgBAIwRAMAYAQCMEQDAGAEAjBEAwBgBAIwRAMAYAQCMEQDAGAEAjBEAwNim8wBiwDvsc8BsdWQq1izPabell68lp1BW5+dTp/spilbfE0lad/X/D/1xcQZfUvQRZz5I2QZsyoA1rt4/k4q3FD3Vru7Xf/u1jwN4mxEAwBgBAIwRAMAYAQCMEQDAGAEAjBEAwBgBAIwRAMAYAQCMEQDAGAEAjBEAwBgBAIxtOg9gxCz/CBmhdV9vWBtwwEHGgHfYh9Tn+uaOOK9BKbURc/gD5ueHzPHfNRHKXX0ZngAAYwQAMEYAAGMEADBGAABjBAAwRgAAYwQAMEYAAGMEADBGAABjBAAwRgAAYwQAMEYAAGN/AyJDgGHAaEZ6AAAAAElFTkSuQmCC;fontFamily=宋体;fontSize=15;" parent="1" vertex="1">
          <mxGeometry x="1340" y="360" width="80" height="80" as="geometry" />
        </mxCell>
        <mxCell id="dpxFrvmY2BpC3zV_ax-8-74" value="" style="shape=image;verticalLabelPosition=bottom;labelBackgroundColor=default;verticalAlign=top;aspect=fixed;imageAspect=0;image=data:image/png,iVBORw0KGgoAAAANSUhEUgAAAQAAAAEACAYAAABccqhmAAAH6klEQVR4nO3dQW4kRRbG8e9FZpbLxk2jRmyQOECv2M5iNLOEBReZm3CEOQ03oSXEDjEjmcZ0dVVmPBbllkCsul5IdvP9f5KXDkVllv6Vm3gZ//r629R7ivf+jyeuD/hAEVLUl8kBazyp+zPi2rYBF+UJiZ5S9bKElAOuSyuvAOCDRQAAYwQAMEYAAGMEADBGAABjBAAwRgAAYwQAMEYAAGMEADBGAABjBAAwRgAAYwQAMDY/qbPjl+C8+dPGtf2LEef4R+EJADBGAABjBAAwRgAAYwQAMEYAAGMEADBGAABjBAAwRgAAYwQAMEYAAGMEADBGAABjBAAwNj/2Bsqe0NnqET74+Qx/ED21/HyQKrcoQu3+IPVe20wLqRV/70LqN1fFNULx60Fx2mrX5WGtKp4AAGMEADBGAABjBAAwRgAAYwQAMEYAAGMEADBGAABjBAAwRgAAYwQAMEYAAGMEADBGAABjH/48APzFdNykylyBFmp3B013by6ftxAhnU7aXv1QO7eem9YvX0rPntVmAoSUA2ZHxFYc2BChaZnOG3oCoyx4AgCMEQDAGAEAjBEAwBgBAIwRAMAYAQCMEQDAGAEAjBEAwBgBAIwRAMAYAQCMEQDAGAEAjDEP4KkIKY5du5/uy+99j8q5eUlKKXeT+qe3l88VSKnvQnf//FxROEKfLfTxq3vNb07KSy9LSjk35RS1OQnS5fMR3gkpl1lqxXvUU7FutTXEEwBgjQAAxggAYIwAAMYIAGCMAADGCABgjAAAxggAYIwAAMYIAGCMAADGCABgjAAAxggAYIx5AINET6l4xFsKrS9uynvZdq327vkWml4fNb9+Wzr/Pq2h568OhY08bOd0ngtwsTjfn+lQPz/fl+JvZoTa/UHx9lSb+xBSFudGSDwBANYIAGCMAADGCABgjAAAxggAYIwAAMYIAGCMAADGCABgjAAAxggAYIwAAMYIAGCMAADGmAcgKbbqS+N1fnf9gJxuy1Reo526VPlITWprV5y20jwARagtA87g76baPABJyjzPbBiwl5KQtuc3irWXZjZkC+VU/8LxBAAYIwCAMQIAGCMAgDECABgjAIAxAgAYIwCAMQIAGCMAgDECABgjAIAxAgAYIwCAMQIAGJtHnIW/RNZfbS6l1Aac8R7xnnVFjMlp9fNEaPn5XnEqnDdPKXeT+sf72lyBCG37+siJnKJ0dv5hM8oBX/UoLxKK46o4Xn5/2jF193KnH7+51nSo7YcnAMAYAQCMEQDAGAEAjBEAwBgBAIwRAMAYAQCMEQDAGAEAjBEAwBgBAIwRAMAYAQCMEQDA2JzTiIP57y/WAe9rTym2Xt/LgGuQGcrqkIOUWvXzhJTzJLVC2zPV94v6flH1EH3OA67tiHkNkqI03OBsm+u/mf2TvaI0Z0G6/l/Xy//+Wp6TwBMAYIwAAMYIAGCMAADGCABgjAAAxggAYIwAAMYIAGCMAADGCABgjAAAxggAYIwAAMYIAGBsrh5hv1iTqoeZo6fa6fL3rL+TW/0cv3btvI/KOe+UVB9voNzP1WP8kqR2XIsbSbW7U3ENqV8vUiveowhldQ1JeTWV1yjvIiW1UN/P5b3wBAAYIwCAMQIAGCMAgDECABgjAIAxAgAYIwCAMQIAGCMAgDECABgjAIAxAgAYIwCAMQIAGKsfKL5USFnJT0jqqTitUvH98dGKHUypT6GcojYPQDqvURFS3G+KXtxIz/NfVfUnJqRYt9o9DinWrjgWZ0dEqH92U1jgz3uqyBYDBgvwBABYIwCAMQIAGCMAgDECABgjAIAxAgAYIwCAMQIAGCMAgDECABgjAIAxAgAYIwCAMQIAGHu8eQBV796RfrUMORdd3UufH94/XzlCn1LrvbwXzZMya2f5sz18nqLyfIMRQopTV2tbcR7AeZ3ydrZUjLg/u1aeP8ETAGCMAADGCABgjAAAxggAYIwAAMYIAGCMAADGCABgjAAAxggAYIwAAMYIAGCMAADGCABg7PHmAaQU1dfP56Dz5iPWiFD02geKnmpvt/JWUvn4MxIkqaeWu0PxDH4ofrmX1sJZ/kzl9ZXy9lqqnMOPkPaX/7sktaP04zeL7r8ItfWyNQ7ron98/r3+8+V3+u10VdtP6b8BfNAIAGCMAADGCABgjAAAxggAYIwAAMYIAGCMAADGCABgjAAAxggAYIwAAMYIAGCMAADG4t9ffVs9lf94Umoj3tdefFf7KNFT7U3xHfYprbeLshUWCSlO/XxtK3vpqfn/v5VnE8TxKFVmLfRUf7bX9uK2to4kVb8qEZpeHxSn2nyDfr1ofXFT/jw8AQDGCABgjAAAxggAYIwAAMYIAGCMAADGCABgjAAAxggAYIwAAMYIAGCMAADGCABgjAAAxuaL/qt6plo6v2u9ek48U7FmeZ1yBkNqb7uien5ekpS1M+d53k91H7k0bUv992G9fV5eI+ojH6SQsnxvJFXmLDxYP/qoPFcgeqqt9QvDEwBgjAAAxggAYIwAAMYIAGCMAADGCABgjAAAxggAYIwAAMYIAGCMAADGCABgjAAAxggAYGy+5Ix0DDgTPUK20HYzPfY2JEl9btKAc+sxYNZCjrg/eZ63UDXim9JbfXbE306EcsDPN08AgDECABgjAIAxAgAYIwCAMQIAGCMAgDECABgjAIAxAgAYIwCAMQIAGCMAgDECABgjAICx3wGqI4ltIbKmEgAAAABJRU5ErkJggg==;fontFamily=宋体;fontSize=15;" parent="1" vertex="1">
          <mxGeometry x="1250" y="360" width="80" height="80" as="geometry" />
        </mxCell>
        <mxCell id="dpxFrvmY2BpC3zV_ax-8-78" value="" style="shape=image;verticalLabelPosition=bottom;labelBackgroundColor=default;verticalAlign=top;aspect=fixed;imageAspect=0;image=data:image/png,iVBORw0KGgoAAAANSUhEUgAAAQAAAAEACAIAAADTED8xAAAHAUlEQVR4nO3dy44cRRCF4Yismp6LsbEEYonY8BC8Lg/DBgmJN2BlI2HL9hjPxV2VwcJImF2fkDwgn/9bT051V/fftclLjptjnCCrTvmzj1VU6KMi8yGGRET0RonXaNyBiGq8o6EPqYrOq3sojc9Hv9tDvwjw+SAAWCMAWCMAWCMAWCMAWCMAWCMAWCMAWCMAWCMAWCMAWCMAWCMAWCMAWFt7E9ZPkZGNmfr1ILPAIzM6c+H1t9O4Sm95w2y8ndZH3/hMO5fpaNw4ngCwRgCwRgCwRgCwRgCwRgCwRgCwRgCwRgCwRgCwRgCwRgCwRgCwRgCwRgCwtp68Ff1DzJ5vXqgxgb63CqJzdsGn/4mpimXU08fqrcuLc+1Ugcx6f6y7O/k+vD/pDIp/VOXVVayL8DFlxvE47+7Ubx1PAFgjAFgjAFgjAFgjAFgjAFgjAFgjAFgjAFgjAFgjAFgjAFgjAFgjAFgjAFjLcSPO1f5M9Pas19cDDHFQVV1dzKsLYSp8VSzL2ZdPxUUOuT//ve7v1cn92blz4piqOj/Uovw6Z+Q28/6ovh2eALBGALBGALBGALBGALBGALBGALBGALBGALBGALBGALBGALBGALBGALBGALCWy7v3p/xddfb6f6jzAZoXUlTUOuZjZZp+27bntsmj9ikPOVtjDGUP/oh9xrZ3zklQNS4xZ+o3gScArBEArBEArBEArBEArBEArBEArBEArBEArBEArBEArBEArBEArBEArBEArJ26HmAOeX52ayP5B9JZ3pCR+k2IfWoLHCrq6lBX59qozDwctBeWGW+u47hpM+8zG7cuj+Lyhln59EkeDsJahTHmu3fbixcxtN90ngCwRgCwRgCwRgCwRgCwRgCwRgCwRgCwRgCwRgCwRgCwRgCwRgCwRgCwRgCwttZp08EfbHJ/Z6b+qmc8K6b4lipik+9Clbhjfc3IzEdrSAOr6tVrdU/9PG6x79rLy+zs3K8eqpBVN7dzUc4uiIjjtt7eq2dF8ASANQKANQKANQKANQKANQKANQKANQKANQKANQKANQKANQKANQKANQKANQKAtczb43/9Gj6SGYt+EMGuL1YofZJ6Sz25DHVeu7yGIKJq3J90zsO/bOLZBR801gOE/IYiUprZP8/yi9/uvvnpzTxwPgBwMgKANQKANQKANQKANQKANQKANQKANQKANQKANQKANQKANQKANQKANQKAtRw3n2o9QA19L/kMdX/3iM5s85yNGer6EoKq+fgyltSm3e9T3ra/IjdxSERnMUC01lGM1pEC0nUqYmTj95wnAKwRAKwRAKwRAKwRAKwRAKwRAKwRAKwRAKwRAKwRAKwRAKwRAKwRAKwRAKytpybQmHMf1ZjcX5t+pc5O//paBXmKekRG3t/LSxzWdR4O2pCIPG7ykF2/1XPGNuWPtfTvQQ79y1OhL/PgCQBrBABrBABrBABrBABrBABrBABrBABrBABrBABrBABrBABrBABrBABrBABra2Oi/6mqsYrgwxh5vrn69xUj9UUEnQnqy6ItPKiKw9m4vNAWOex7vnwtr3C4vdP+PiLGqEW8SrVOY5BXa0RkxjLU7wJPAFgjAFgjAFgjAFgjAFgjAFgjAFgjAFgjAFgjAFgjAFgjAFgjAFgjAFgjAFjLcXP8RP+6MuUZ9Bkx5F34Y5en9jcWA0R0fi4618mQlx7Mqrd/ytc5nMlrFcaYY2hvKzMfXaqvTV0PUOs4PLt+9OuzOlukgTwBYI0AYI0AYI0AYI0AYI0AYI0AYI0AYI0AYI0AYI0AYI0AYI0AYI0AYI0AYO3/th4gY9Wb1Lefzzm1Dfg/DFK3xv97WnvjXAHxGnOf12/lPfXXtbMNv3rf5qyXr6QR+1l89/Ph8R/LPHlu//m+/fLVtz9+/8Plpn2feQLAGgHAGgHAGgHAGgHAGgHAGgHAGgHAGgHAGgHAGgHAGgHAGgHAGgHAGgHA2idcD9CRUfp6gNIntWeVPK89I1Zt7/mIiPfiwoOKOF/rYtXWBFTFvmuT+zNil29CjhHrKg2JqriWzy6oZUg/zjnq9vrRi+dfj0VbHMITANYIANYIANYIANYIANYIANYIANYIANYIANYIANYIANYIANYIANYIANYIANZOXQ9Q+j7yHZl1ps+5V2f2V8SasQ5xH/6OcbfFlC/TWOHQkNl5/53XtssXSvn0hqiRdZA/U54AsEYAsEYAsEYAsEYAsEYAsEYAsEYAsEYAsEYAsEYAsEYAsEYAsEYAsEYAsHbqXu+tqeO6qjjunVHyiBH34oUqsjGzXx8S2ZmpP4f+W7ZXZ0XEQ60MkUdEhv7d4QkAawQAawQAawQAawQAawQAawQAawQAawQAawQAawQAawQAawQAawQAawQAa38B5FegFpeNwYoAAAAASUVORK5CYII=;fontFamily=宋体;fontSize=15;" parent="1" vertex="1">
          <mxGeometry x="980" y="550" width="80" height="80" as="geometry" />
        </mxCell>
        <mxCell id="dpxFrvmY2BpC3zV_ax-8-80" value="" style="shape=image;verticalLabelPosition=bottom;labelBackgroundColor=default;verticalAlign=top;aspect=fixed;imageAspect=0;image=data:image/png,iVBORw0KGgoAAAANSUhEUgAAAQAAAAEACAIAAADTED8xAAAG8klEQVR4nO3dzY4bRRSG4XOq2uNxJgqR+BU7roEL4OK4L3aIW0ACJHbAhhApmcR2dx0WyQJY+StpTDTf+0jZpabt7nmnN/WT/TjiApWX/K9/ySp5zJwmf7h6/0+TM1/oSjehepPHjGs9oAkZoT7VitS/kX7XgEeEAGCNAGCNAGCNAGCNAGCNAGCNAGCNAGCNAGCNAGCNAGCNAGCNAGCNAGBtmZjof6HKmR89M2hiXvvUZ7uamVv3AU/un1gZUpETKykm7htvAFgjAFgjAFgjAFgjAFgjAFgjAFgjAFgjAFgjAFgjAFgjAFgjAFgjAFgjAFhb/u8P8F8ThwpMTO2fO7tgaoXDNRYeVEQdmjaBvmocbqOJfwFHxbjoQIl/XCja8SQOqTjsaxG/0dRZDLwBYI0AYI0AYI0AYI0AYI0AYI0AYI0AYI0AYI0AYI0AYI0AYI0AYI0AYI0AYC3bSZzeDUU1cT3AqPHR7fbsVtjvvyqW5eaLL8W1FL1++rle32tLAipyZtt+dUCNu33t1BUOkfohCbwBYI0AYI0AYI0AYI0AYI0AYI0AYI0AYI0AYI0AYI0AYI0AYI0AYI0AYI0AYO2DWw8wsXP/1Lb96jUiltzubtQ96LebnXZCQEaetjytwqgW/X77+IffpbUHuY0XX392frbLy59/Ro7KtdQzDya27a+WIT3WjNxGnFdtFG8AmCMAWCMAWCMAWCMAWCMAWCMAWCMAWCMAWCMAWCMAWCMAWCMAWCMAWCMAWPvg1gNcR7WcaF/e7D+ibSVucl9108fNom32P6q9OYkfLWpp6uz5mNjsP6Kdxd+xqvFkH70LSwky43hur+5ZDwAICADWCADWCADWCADWCADWCADWCADWCADWCADWCADWCADWCADWCADWCADWHsN6gOryFPWc2LI+IoY+TD3uoGrsl9qL6wEiYsjPMc8j1W+UOXG322nTBlSMXUZLaSlFrqOdVu1CvAFgjgBgjQBgjQBgjQBgjQBgjQBgjQBgjQBgjQBgjQBgjQBgjQBgjQBgjQBgLXObmxp/wY+e+ME5s/18qlPnI6Ii9HUQE5vpr3e31bV57RE1sYqgHfWp8Kt4dsE7+gOSL1I17m5iEe7b2OXTX7fPv1/HjXYp3gCwRgCwRgCwRgCwRgCwRgCwRgCwRgCwRgCwRgCwRgCwRgCwRgCwRgCwRgCw9pDnA/Sopk8e1+ebzywhGCVvja/v9R8VdVjEj5c5Royh3odc5a+T+pECEVH6qoimX6ea+Fgrok2dXaAOAB4TAoA1AoA1AoA1AoA1AoA1AoA1AoA1AoA1AoA1AoA1AoA1AoA1AoA1AoC17A+2HqBalt7XxBKCdt7kq0Tqu/3XxEEElU1d4FAz89ozFvFeZ/RXx5BOh6iontK2/e8vpZ9BUZnyfdOHBG8AmCMAWCMAWCMAWCMAWCMAWCMAWCMAWCMAWCMAWCMAWCMAWCMAWCMAWCMAWFse8GdXpLrWILOyhTjffOi7wmfFxPkA8tkFFXXo8ob6bYm9eqHKt6s2JKJN3IBRpa++yJz6NRM/XqsR+toW3gCwRgCwRgCwRgCwRgCwRgCwRgCwRgCwRgCwRgCwRgCwRgCwRgCwRgCwRgCw9pDrAXQVFaFvP69O08/IrWKUNi5DHBCREeumfrwcFepBBBX9KE/Tj7M4fb4iloze1Qc0sW1/LU1dR9HOW78/q3/SeQPAGgHAGgHAGgHAGgHAGgHAGgHAGgHAGgHAGgHAGgHAGgHAGgHAGgHAGgHAWvajvqf6ZapnqRPBW9aiTx7f5I3uc5S6l3zlzLz2VA8HeHch7RqRo+LtUft8mevLF7Wuyqhqh7v+/HkM5d6NsfvtL+H/R1Qfn/z4/Pblflx8hMGhzt89+erbT795Oo7StXgDwBoBwBoBwBoBwBoBwBoBwBoBwBoBwBoBwBoBwBoBwBoBwBoBwBoBwBoBwFq200OtB5iRMXZyk+pG8vF+D37xKi3HbdNGZfQ3W0qb/VdUz+raIQn6OoWpcRmxVUqLAd6NW8WzC6rGk30tyt1urf/5avfLH7Fovz+8AWCNAGCNAGCNAGCNAGCNAGCNAGCNAGCNAGCNAGCNAGCNAGCNAGCNAGCNAGDt4vUATZ9zXleZcx+h7vQfFbVkiHPuI6K6+Pcio78+55CPL5iQExeZGFMxs/pg4g5kqteplqX/PecNAGsEAGsEAGsEAGsEAGsEAGsEAGsEAGsEAGsEAGsEAGsEAGsEAGsEAGsEAGvZL1sPULNb0MuuMXk+quVE+6UvishtYir8zIkHE5p+SMKk66wHyJkHxBsA1ggA1ggA1ggA1ggA1ggA1ggA1ggA1ggA1ggA1ggA1ggA1ggA1ggA1ggA1v4GkBCoFqusFk4AAAAASUVORK5CYII=;fontFamily=宋体;fontSize=15;" parent="1" vertex="1">
          <mxGeometry x="1070" y="550" width="80" height="80" as="geometry" />
        </mxCell>
        <mxCell id="dpxFrvmY2BpC3zV_ax-8-82" value="" style="shape=image;verticalLabelPosition=bottom;labelBackgroundColor=default;verticalAlign=top;aspect=fixed;imageAspect=0;image=data:image/png,iVBORw0KGgoAAAANSUhEUgAAAQAAAAEACAIAAADTED8xAAAGRElEQVR4nO3dwY4jNRRA0fdclVYDCxAfgMT//xNISGgWLEAgxHRS5cdidqzyLDqK+t6znmC3w01t7HKOW8Ud8p5/9B93/Yf/l5H6luZWj5nb0hoszC3XvqC+hXEetdIxHjWQ9IwMQGgGIDQDEJoBCM0AhGYAQjMAoRmA0AxAaAYgNAMQmgEIzQCEZgBC2+/def3Me7oXLM1tZQP9wxahP7dHHQdYWYR61OR8AgjNAIRmAEIzAKEZgNAMQGgGIDQDEJoBCM0AhGYAQjMAoRmA0AxAaAYgtP1hL4n/CB61uf8B5w4yYo4HnfKYW3t24zjjrPsHq4xRkbM9O58AQjMAoRmA0AxAaAYgNAMQmgEIzQCEZgBCMwChGYDQDEBoBiA0AxCaAQhtv3dL+MI28LWTBs98q8Cj7gfofagiXvb88Yfe/QU15qdf6+0t8u7RMvJWeZvdP2q7zt4HKs591NZb8HHM/Z/23HwCCM0AhGYAQjMAoRmA0AxAaAYgNAMQmgEIzQCEZgBCMwChGYDQDEBoBiC0/an337+bxaMKz3k/QEad5+37T1mdz2WOt2veGu/g/zKz2luTi4hozSsisqJe9rpsjU+OPLPmX791f9N9AgjNAIRmAEIzAKEZgNAMQGgGIDQDEJoBCM0AhGYAQjMAoRmA0AxAaAYgtNxua3vjdZeVxc2o7u9SxnlpfiZj+zxzdrfqR23tH808mqNU1B7VPn2RC4dbfAIIzQCEZgBCMwChGYDQDEBoBiA0AxCaAQjNAIRmAEIzAKEZgNAMQGgGILT9zp3aubCx/ZlvHlg6BNHfod6/U6DifN3m69aYYUbM2q6zObPIihid6WXErHGd7W+2e0FAfVnrzjBj5N9v+dPvsfUm5xNAaAYgNAMQmgEIzQCEZgBCMwChGYDQDEBoBiA0AxCaAQjNAIRmAEIzAKHldr1rr/bKVvglC+MszG3leENfRhxfbQvTa8+uYrue7WG6L9TPiLPybH9J2T0PEDH3rNZZhcg8z+3tqOYBDJ8AQjMAoRmA0AxAaAYgNAMQmgEIzQCEZgBCMwChGYDQDEBoBiA0AxCaAQgtx+29tsZntDe215bzde8OVM1hKmN7O7P/nvvRP0dwvIwYzXWoesxxhXF2Vy5ixOxt049YOg9Q2b5aIaN/EYFPAMEZgNAMQGgGIDQDEJoBCM0AhGYAQjMAoRmA0AxAaAYgNAMQmgEIzQCE1t58f7+K5ovkqyqiurvnI+JyaY2UI2u/5ufmjvOKmu1X44+jfeogMtsrkFF7f5v+sTJQ+8+ppdsYKmK2P5ZH/wvqjiF9JAYgNAMQmgEIzQCEZgBCMwChGYDQDEBoBiA0AxCaAQjNAIRmAEIzAKG943mA/v0AGVV19N8/P2frn1fmuJ3jFtXeqd/851XnNy/V+4My5xbn2RusYlx7ixAROdsrvbJNf0a0p9a+HCAiIqM27weQOgxAaAYgNAMQmgEIzQCEZgBCMwChGYDQDEBoBiA0AxCaAQjNAIRmAEJ7z/sBqrl/virGtr28RvV2dc+ff4nz7Aw0449v8+uM8+6N6hWRUZf278W4ndXc2l4Rkb2BMmpc28cV5tb9hiIisv/a/tm/u6Au2V23rMijPZBPAKEZgNAMQGgGIDQDEJoBCM0AhGYAQjMAoRmA0AxAaAYgNAMQmgEIzQCEltv1ru3d7Vfpt3enR1acl/H5u0s2zwO8/HlrXURQEdtZufDS+r7q/sJk5KyY7eU7L/1vaERvmIw8Io/meYCM86U5t4r5Onr3KmTkUePojRM+AQRnAEIzAKEZgNAMQGgGIDQDEJoBCM0AhGYAQjMAoRmA0AxAaAYgNAMQ2r3nARZeJN9+jfziOCueeW6xdPpi8U/qyui+tj8ixtmeXGV/uefKQD4BhGYAQjMAoRmA0AxAaAYgNAMQmgEIzQCEZgBCMwChGYDQDEBoBiA0AxBabrfHbCR/Rwt/wMN29j9O97qDirn3F6JWli6f+H8xnwBCMwChGYDQDEBoBiA0AxCaAQjNAIRmAEIzAKEZgNAMQGgGIDQDEJoBCG2/d6t2fxv4M+8C/3iq/1OW5VkKnwBiMwChGYDQDEBoBiA0AxCaAQjNAIRmAEIzAKEZgNAMQGgGIDQDEJoBCO1fwbc5UHsJZ3UAAAAASUVORK5CYII=;fontFamily=宋体;fontSize=15;" parent="1" vertex="1">
          <mxGeometry x="1160" y="550" width="80" height="80" as="geometry" />
        </mxCell>
        <mxCell id="dpxFrvmY2BpC3zV_ax-8-83" value="" style="shape=image;verticalLabelPosition=bottom;labelBackgroundColor=default;verticalAlign=top;aspect=fixed;imageAspect=0;image=data:image/png,iVBORw0KGgoAAAANSUhEUgAAAQAAAAEACAIAAADTED8xAAAF9klEQVR4nO3dP28bRxBA8Zk9UjYRuDIQpMn3/1zuUghG/sq0yNtJESSF02g2kUT7vV/twx5pPV6zc5un+0tI34ZqXzGe4S6kr4YBCM0AhGYAQjMAoRmA0AxAaAYgNAMQmgEIzQCEZgBCMwChGYDQDEBoh9e+gX/pb+lekS+yiiJi7b906T8onQeQWgxAaAYgNAMQmgEIzQCEZgBCMwChGYDQDEBoBiA0AxCaAQjNAIRmAEJ78jzAy2zT16qas/XvM+IyHiv29tb79l9CXc+fmldUvDvF8dBYa+T4+eH44b623m+6TwChGYDQDEBoBiA0AxCaAQjNAIRmAEIzAKEZgNAMQGgGIDQDEJoBCM0AhJan+8tr34O+1NtyXzGzHt6eszURkHG4jtHc3D9mbAt/L1v3GIrcD3u1fpwz4/wYv/we2Rtv8AkgNAMQmgEIzQCEZgBCMwChGYDQDEBoBiA0AxCaAQjNAIRmAEIzAKEZgNC6G7XRFs5IyIVrqrpLjVmnj597b/qvyvfv5t1oLJURl8qtqnmiwPapd3ZBRMa+Z2u+oeb87jR//CF6UxE+AcRmAEIzAKEZgNAMQGgGIDQDEJoBCM0AhGYAQjMAoRmA0AxAaAYgNAMQmucD3Jyq2R49yNiPzU36Gdu5cnYPCIi5NReKGNfuFVGdOYW/L8k4ti/zCSA0AxCaAQjNAIRmAEIzAKEZgNAMQGgGIDQDEJoBCM0AhGYAQjMAoRmA0Dwf4HlV9fanZ8V+jP2YrYMFsuJwrtbxABER1X7Tf8TIyu6e+1o4JSF7px3EGPnHQ3y4j9H7TfcJIDQDEJoBCM0AhGYAQjMAoRmA0AxAaAYgNAMQmgEIzQCEZgBCMwChGYDQnAfoaG9rz70ee5dVxTxs+xatQYKK6r+2P2PhE1XM7iUR2b636t7ZrLg7xvfvm2MEPgHEZgBCMwChGYDQDEBoBiA0AxCaAQjNAIRmAEIzAKEZgNAMQGgGIDQDENrtzQP0XyW/or1B/S/dm6vYMrL3Qv2MjD3at7jwDv5q79OvETX6311/hCCjfQpB5BZ3b7oL+QQQmgEIzQCEZgBCMwChGYDQDEBoBiA0AxCaAQjNAIRmAEIzAKEZgNAMQGg3Ng9Qkdf25vE69HeoV7ZHAmplVmFUf197zYUd9HNrXpAxcnTvrTJra7+7P2tp/GJlMqT9g+4TQGgGIDQDEJoBCM0AhGYAQjMAoRmA0AxAaAYgNAMQmgEIzQCEZgBCMwCh3dg8QKwl2d9uvrBBPWv2t8LvtUc1r9lGjN7u/qzYLv0TBa7tHfc5Z12bX0JGbN1hhajoD2zk0sBG+wrpG2IAQjMAoRmA0AxAaAYgNAMQmgEIzQCEZgBCMwChGYDQDEBoBiA0AxDajc0DZNRob9XPvfk2/Yo6ZIzum/tz7L17y8jrcV94OX7vzjJij+1zdTfQz9G+pDvaEBFRMfdr+6pt68435Ky87t11fAIIzQCEZgBCMwChGYDQDEBoBiA0AxCaAQjNAIRmAEIzAKEZgNAMQGgGILQbmweIqGxvn69Df4QgVt4l3949H3V3ObYXmRWzN+FQMffLuf1C/eMhWt92RYzM/o9mtY8HiDo0f5xHjt8e7376tUbv9nwCCM0AhGYAQjMAoRmA0AxAaAYgNAMQmgEIzQCEZgBCMwChGYDQDEBoBiC0PN1fXvse/qvn39j/z0rtpSoXFsvsrlOV58f+uEJbRv/zZMTWHjupmu1vu2I05yjCJ4DgDEBoBiA0AxCaAQjNAIRmAEIzAKEZgNAMQGgGIDQDEJoBCM0AhGYAQnvyRu0X23S/sNBYWKlWFlr4SP3jDqKi/S1k1ts37YVmdReamUvf9oL+mQIRe/8SnwBCMwChGYDQDEBoBiA0AxCaAQjNAIRmAEIzAKEZgNAMQGgGIDQDEJoBCO3J8wAvswl8SfbfCv9inyfnytjB0kr9S7b2y/5v+K8gYm2W5P+/C+nrYQBCMwChGYDQDEBoBiA0AxCaAQjNAIRmAEIzAKEZgNAMQGgGIDQDENqfdS0PhO/tYJwAAAAASUVORK5CYII=;fontFamily=宋体;fontSize=15;" parent="1" vertex="1">
          <mxGeometry x="1520" y="550" width="80" height="80" as="geometry" />
        </mxCell>
        <mxCell id="dpxFrvmY2BpC3zV_ax-8-85" value="" style="shape=image;verticalLabelPosition=bottom;labelBackgroundColor=default;verticalAlign=top;aspect=fixed;imageAspect=0;image=data:image/png,iVBORw0KGgoAAAANSUhEUgAAAQAAAAEACAIAAADTED8xAAAGHUlEQVR4nO3dMXPcNhBA4V2QUpwUafL/f2MKjyVZd8SmcOKZpOJiRpyL3vsKV0cTxOkdG4DM/XXGGXXqU/+S/UPWLIxtzWVXtOCRv6DL9CdhfMAopP8NAxCaAQjNAIRmAEIzAKEZgNAMQGgGIDQDEJoBCM0AhGYAQjMAoRmA0PazH1xYO37ZMv0Fn28p/ENfUX9wtfTX0z+PdwChGYDQDEBoBiA0AxCaAQjNAIRmAEIzAKEZgNAMQGgGIDQDEJoBCM0AhLY/9Kp9nZZH+4usnJHtbRtZvUX3lXn/rXlI5PPrPW/VW9+fWVv7B907gNAMQGgGIDQDEJoBCM0AhGYAQjMAoRmA0AxAaAYgNAMQmgEIzQCEZgBCy/1lnvvgBw/kp4X9CQ/9aPwlvUmoGtvtjy/ZOipj+/Ml70dr+rK5RP+HGu2D5h41sjUPeZ/b2707Pu8AQjMAoRmA0AxAaAYgNAMQmgEIzQCEZgBCMwChGYDQDEBoBiA0AxCaAQjt9H6Alf/7o/7j/3rkVxxcMgkVcTy1jxq3mbM5wpGR7Usat/bf2PGc3f0AMbK2/ti6B0ifiQEIzQCEZgBCMwChGYDQDEBoBiA0AxCaAQjNAIRmAEIzAKEZgNAMQGj72Q9+smfwP+zlVNSWtTU3OWTWc++3rDJ/+fqex+xNxayFh/23p7siKrKqMQk/Ptvf2+IdQGgGIDQDEJoBCM0AhGYAQjMAoRmA0AxAaAYgNAMQmgEIzQCEZgBCMwCh7R+4Mn7tsf0fv9r8aq15qKg9j1+31lFZY/92685Dzmo/UL8y7/3l/Ss/s/nzn5Mf397n/vWt+5PuHUBoBiA0AxCaAQjNAIRmAEIzAKEZgNAMQGgGIDQDEJoBCM0AhGYAQjMAoZ1+P8DC4v61ZforJ1o409Jmhf5Bc6vI5oHHsX3rXdGIqJXp7j9OvzLGwjfbnris5ugyo+Y937sn8g4gNAMQmgEIzQCEZgBCMwChGYDQDEBoBiA0AxCaAQjNAIRmAEIzAKEZgNByf+0vCj+pv3o+Z21v79Vc3z+fehln1BxbjHb8Cyvu709/r9bvnWVh6o72IVELp4ka7WlY2RjSHVpFjaj+mbwDCM0AhGYAQjMAoRmA0AxAaAYgNAMQmgEIzQCEZgBCMwChGYDQDEBoBiC00+8HuEZVHrP7vP/cRnPJeY6K6u6DyP5y84ox20vba0Rt/YXtufDygpUXKyycZ/FNEc1TjKPy3n5NgncAoRmA0AxAaAYgNAMQmgEIzQCEZgBCMwChGYDQDEBoBiA0AxCaAQjNAIT2WO8HiIqc7Qfdzy2bq8Ara4zqr2xvHpBV778/1dY6JvI+2+vaK8atfTUZc+E7WnmpQP+VAhXd7/Sf45q8AwjNAIRmAEIzAKEZgNAMQGgGIDQDEJoBCM0AhGYAQjMAoRmA0AxAaAYgtId6P0BWzsr2/oQZ1VwHXtvc4xitx+NX9h/bX5FV2dvgkDEjjtl7GUHFuLX3UdTCMv2R9dRfdb/w6oKnbA+vYhztPx7vAEIzAKEZgNAMQGgGIDQDEJoBCM0AhGYAQjMAoRmA0AxAaAYgNAMQmgEI7SP3A/RXm2dEjPaQ8rmZcUbdYmbzGfzRvqLK3LqvX8iI14pZ0Xx7QUXzRBURo3dFGeOo/N6ch4z7l9YrEiIq5jZq73ytGSOO+P4erU0e3gEEZwBCMwChGYDQDEBoBiA0AxCaAQjNAIRmAEIzAKEZgNAMQGgGIDQDEFruL+1Hqp/+v5eO6j9LfvFECxbGdpGKag9uZdpm5NE+UT039wNEVEX7iirGbI/NO4DQDEBoBiA0AxCaAQjNAIRmAEIzAKEZgNAMQGgGIDQDEJoBCM0AhGYAQjv9MP7mY9cj+uu5r3TZ0BbmLRamLmO0f8tqzvbgRs79kr+EkQsbFmb/RN4BhGYAQjMAoRmA0AxAaAYgNAMQmgEIzQCEZgBCMwChGYDQDEBoBiA0AxDafnrRdX9J99JK+Oyfp/pPhY/Mi3Y4XLcpYmXN/dLgLrmiq+bNO4DQDEBoBiA0AxCaAQjNAIRmAEIzAKEZgNAMQGgGIDQDEJoBCM0AhGYAQvsL9IIoqq5Sl7sAAAAASUVORK5CYII=;fontFamily=宋体;fontSize=15;" parent="1" vertex="1">
          <mxGeometry x="1430" y="550" width="80" height="80" as="geometry" />
        </mxCell>
        <mxCell id="dpxFrvmY2BpC3zV_ax-8-91" value="" style="shape=image;verticalLabelPosition=bottom;labelBackgroundColor=default;verticalAlign=top;aspect=fixed;imageAspect=0;image=data:image/png,iVBORw0KGgoAAAANSUhEUgAAAQAAAAEACAIAAADTED8xAAAFtUlEQVR4nO3dwW4cRRSG0aqe9iRIkSKyQIhH4B14/+dgx4IgghwlwZ4pFiBlO/eCG8v/Oeu0e6adz725VTX3+4cBz8xcvctm9YqtdR94IQRANAEQTQBEEwDRBEA0ARBNAEQTANEEQDQBEE0ARBMA0QRANAEQbf+/PwD/jcYA/SoPzx+n+9nKT8EbgGgCIJoAiCYAogmAaAIgmgCIJgCiCYBoAiCaAIgmAKIJgGgCIJoAiPbs1gO8sLn2g8xxPR3yFNZo3Gat3m7/ZbP+6bwBiCYAogmAaAIgmgCIJgCiCYBoAiCaAIgmAKIJgGgCIJoAiCYAogmAaM9uPcALG+5vLG8YjYew1vzzWrxkjNMcs/y4GzP3q75WYXXu0/nP4w1ANAEQTQBEEwDRBEA0ARBNAEQTANEEQDQBEE0ARBMA0QRANAEQTQBEe3brAZ6z3nD/IebYy3/LVuOv3xqj8RDql8xVv9Oca3M+AFQIgGgCIJoAiCYAogmAaAIgmgCIJgCiCYBoAiCaAIgmAKIJgGgCINpLWA/wjMf0u8cd1Lftb+ymP4snCvxzVWc9QP2azlqFNR/LX8kbgGgCIJoAiCYAogmAaAIgmgCIJgCiCYBoAiCaAIgmAKIJgGgCIJoAiPYS1gMcpjHcP+tz+mu2NuFvrjw45D5b/eyCzpkCnRt5AxBNAEQTANEEQDQBEE0ARBMA0QRANAEQTQBEEwDRBEA0ARBNAEQTANFuXQ/Q2BV+jdam9Y058Gv5mjVbe/DXXfbyioB5nY1vdNghCZ31AI3zAUb9P8821lb+cN4ARBMA0QRANAEQTQBEEwDRBEA0ARBNAEQTANEEQDQBEE0ARBMA0QRAtNvH1Rtz+sVR+DXGeb+8fTO22r0eXp/GVvmA2zZ//X18uC9tJz/XPI/9iKn7gzb6b54o0Fl40Nrrv3yTyxjbtXqVNwDRBEA0ARBNAEQTANEEQDQBEE0ARBMA0QRANAEQTQBEEwDRBEA0ARBtXzcOa/d2hS8Ngq+11rqe31Z3x//8zcOqhLz2+fr94/nz/Trd/q3WnKf97q76GHqz/Y1J/Wvhu3y9T3VSf67OZ6tP6XfM0Vl44A1ANAEQTQBEEwDRBEA0ARBNAEQTANEEQDQBEE0ARBMA0QRANAEQTQBE25/wZ5cHx+e4XsaHP2pD3Wudfvpxvbob69br1qt9e/9mfvp5nG//+mucxjqXB+jX3MrPYa3ZGGzf63/LruUB+uuo/81cYz6Uv07nFILZWX7hDUA0ARBNAEQTANEEQDQBEE0ARBMA0QRANAEQTQBEEwDRBEA0ARBNAER7yvUAa421bh/RnmtdTqdP7/ba+QDf7h9/2KvnA4zH+8u7j9fCZWub292a1Qn600N5b/w1x9rqg+2X+sx9+R5jjHnzsouv1la+Zl1ad7IeAEoEQDQBEE0ARBMA0QRANAEQTQBEEwDRBEA0ARBNAEQTANEEQDQBEG3u9w9P9aOr09nbvH75/OW3X2Ztun+dv/t+nE63nw8wxprbPuZWG+5fo3KLf6X86Ma41mfux1Y+u2DN1sb9q7woYnssH8Uw5lin8nPzBiCaAIgmAKIJgGgCIJoAiCYAogmAaAIgmgCIJgCiCYBoAiCaAIgmAKI94XqAnsa8eWc3/XHccP8RekcKNO6zxizP9o/6aH9nRcQYYzkfAEoEQDQBEE0ARBMA0QRANAEQTQBEEwDRBEA0ARBNAEQTANEEQDQBEG2/8d91xvR7U/qNq671D3fE8Pzf92nNtVcH6NeYl/rMfWtBRO/XWr9N58M1vpE3ANEEQDQBEE0ARBMA0QRANAEQTQBEEwDRBEA0ARBNAEQTANEEQDQBEO3W9QAHTYE3B+gbW9bPMcs3auxz37jkMIf9To9T/516AxBNAEQTANEEQDQBEE0ARBMA0QRANAEQTQBEEwDRBEA0ARBNAEQTANH+Ahe/9mde0WbjAAAAAElFTkSuQmCC;container=0;fontFamily=宋体;fontSize=15;" parent="1" vertex="1">
          <mxGeometry x="1340" y="550" width="80" height="80" as="geometry" />
        </mxCell>
        <mxCell id="dpxFrvmY2BpC3zV_ax-8-92" value="" style="shape=image;verticalLabelPosition=bottom;labelBackgroundColor=default;verticalAlign=top;aspect=fixed;imageAspect=0;image=data:image/png,iVBORw0KGgoAAAANSUhEUgAAAQAAAAEACAIAAADTED8xAAAFtUlEQVR4nO3dwW4cRRSG0Vs949gRLBBhhcQjIHa8/1PwAiwQKEIJoJAwM10siATLuSV5Yvyfs067Om197s2t6nE4zbrCVf/ouRu3egpz3GihJ2vtUc+tfUn/CnhGBEA0ARBNAEQTANEEQDQBEE0ARBMA0QRANAEQTQBEEwDRBEA0ARDt+Klv4P/kKY/p3+7W+pP6C89t8VH3780bgGgCIJoAiCYAogmAaAIgmgCIJgCiCYBoAiCaAIgmAKIJgGgCIJoAiHZ08P/zsI/2BP3Y27/8tSn9celfM+eYndubVdvY70Z3S4A3ANEEQDQBEE0ARBMA0QRANAEQTQBEEwDRBEA0ARBNAEQTANEEQDQBEM33AZ6Hefzz3JvWn7XfzeruIhhLewJW/syOfWEl3weAFgEQTQBEEwDRBEA0ARBNAEQTANEEQDQBEE0ARBMA0QRANAEQTQBEsx/geRj7i/bfsrmtHfffNvpj+nPhslHV/x95AxBNAEQTANEEQDQBEE0ARBMA0QRANAEQTQBEEwDRBEA0ARBNAEQTANHsB3hy5sJc+6ya/aH7hcP+Z4194RD+9pj+2Gft7Uu2U/ujAt4ARBMA0QRANAEQTQBEEwDRBEA0ARBNAEQTANEEQDQBEE0ARBMA0QRAtLGd+uPdXK0/CF91qbrM3pWj5qF/2P/C5wGa9/XxoqWFFszh+wDQIQCiCYBoAiCaAIgmAKIJgGgCIJoAiCYAogmAaAIgmgCIJgCiCYBo134fYPTns1emwJes3FstTcP37Yf2Qgun9tfyQ+i70XD/7K8zVu7NG4BoAiCaAIgmAKIJgGgCIJoAiCYAogmAaAIgmgCIJgCiCYBoAiCaAIh2vHKOfGUKvD8HP0ft3XPu5zx981UdDjWvnjrftsPrt4c372rrrDVrXG60i2BlmZVf0NJ/5vrn/O9CC8ssbHCosbcv8gYgmgCIJgCiCYBoAiCaAIgmAKIJgGgCIJoAiCYAogmAaAIgmgCIJgCiHR/vFP8x+wfDH7f58qE3cf7w8Pq7+/14vn6t/W778s1fL95+2O86/W/j/PBidKfhR3+ufdSovXvJymH/a5P9N9kRsbIbYM6Fq7wBiCYAogmAaAIgmgCIJgCiCYBoAiCaAIgmAKIJgGgCIJoAiCYAogmAaMdPfQP/MUa9+1A//FJbJ8s5X33/bd3dXT/dPg/b/a/j+PN5uzQWmoetHhr39Y9x6W+4mLUw2D4XDvsf1Z3un6P/N3PWdmleUlXb7G9xWNlE4A1ANAEQTQBEEwDRBEA0ARBNAEQTANEEQDQBEE0ARBMA0QRANAEQTQBEG9tp5WT5K35wbZfmCfSzzi/HH1/fjeb4+PtXh1bI81Cf/3j67KfL3toNMZfmzff+foBRe2tHRFWNuty319nO/Zn7We0vJCzZTnM0v5EwR82t/xC6F8BzIgCiCYBoAiCaAIgmAKIJgGgCIJoAiCYAogmAaAIgmgCIJgCiCYBo1+4HWBiF7w7CzzG20/nw2/tqHnV/+eKhdTr+/Nj9wsH9bStbCEb70VXVPPQXag7cV1WN0X9stR+b14w6/n7ezs37GzW7+yi8AQgnAKIJgGgCIJoAiCYAogmAaAIgmgCIJgCiCYBoAiCaAIgmAKIJgGiP9n2AtVH4qtlPcuzNc+5n1aHmGCsD/k/V0rH9/Scwam79jRH9LQRjLm2/6F/iDUA0ARBNAEQTANEEQDQBEE0ARBMA0QRANAEQTQBEEwDRBEA0ARBNAEQ7Pt6PXjjkvmptCrw51z5rZXh+yQ2fQXupUUv3d5Mx/VrbD9DnDUA0ARBNAEQTANEEQDQBEE0ARBMA0QRANAEQTQBEEwDRBEA0ARBNAER7xP0AK0bN7TYj6jfydO+sVm9ubYvDU13IG4BoAiCaAIgmAKIJgGgCIJoAiCYAogmAaAIgmgCIJgCiCYBoAiCaAIj2N/u18Fgg2oicAAAAAElFTkSuQmCC;container=0;fontFamily=宋体;fontSize=15;" parent="1" vertex="1">
          <mxGeometry x="1250" y="550" width="80" height="80" as="geometry" />
        </mxCell>
        <mxCell id="dpxFrvmY2BpC3zV_ax-8-95" value="" style="shape=image;verticalLabelPosition=bottom;labelBackgroundColor=default;verticalAlign=top;aspect=fixed;imageAspect=0;image=data:image/jpeg,/9j/4AAQSkZJRgABAQAAAQABAAD/2wBDAAgGBgcGBQgHBwcJCQgKDBQNDAsLDBkSEw8UHRofHh0aHBwgJC4nICIsIxwcKDcpLDAxNDQ0Hyc5PTgyPC4zNDL/2wBDAQkJCQwLDBgNDRgyIRwhMjIyMjIyMjIyMjIyMjIyMjIyMjIyMjIyMjIyMjIyMjIyMjIyMjIyMjIyMjIyMjIyMjL/wAARCAEAAQADASIAAhEBAxEB/8QAHwAAAQUBAQEBAQEAAAAAAAAAAAECAwQFBgcICQoL/8QAtRAAAgEDAwIEAwUFBAQAAAF9AQIDAAQRBRIhMUEGE1FhByJxFDKBkaEII0KxwRVS0fAkM2JyggkKFhcYGRolJicoKSo0NTY3ODk6Q0RFRkdISUpTVFVWV1hZWmNkZWZnaGlqc3R1dnd4eXqDhIWGh4iJipKTlJWWl5iZmqKjpKWmp6ipqrKztLW2t7i5usLDxMXGx8jJytLT1NXW19jZ2uHi4+Tl5ufo6erx8vP09fb3+Pn6/8QAHwEAAwEBAQEBAQEBAQAAAAAAAAECAwQFBgcICQoL/8QAtREAAgECBAQDBAcFBAQAAQJ3AAECAxEEBSExBhJBUQdhcRMiMoEIFEKRobHBCSMzUvAVYnLRChYkNOEl8RcYGRomJygpKjU2Nzg5OkNERUZHSElKU1RVVldYWVpjZGVmZ2hpanN0dXZ3eHl6goOEhYaHiImKkpOUlZaXmJmaoqOkpaanqKmqsrO0tba3uLm6wsPExcbHyMnK0tPU1dbX2Nna4uPk5ebn6Onq8vP09fb3+Pn6/9oADAMBAAIRAxEAPwDzfSH8yyQkVz2rJs1WQevNdTbIkcQEeNtc7r67dQV/Va3VrmKZnqKmJAZTUI7VJglQe1W0Qye5Ksi461FAcTIfenvCVi3E1CvDKfQ0QsLU6CyYR38Z9TXU2f8Ax8NHgdc1xazbJUb6V2NnKDPbz9nGD9a5cxp3Skjuy6p7rizblIyowPyqldKEkDgCp5ZfnFQM3mNg15Llc7oosgB4c8dKwNWUeTjA61tocwkL/DWNqnMZ+tdeEd6iMqy9xlewQG0mXH8NctIAsjD0NdVp7jZIP9muWn/1zj3Ne7Fas8SbK7AZqNxUzConFKUQiyBhxUTcHNTsKiYVk0jaLHRtkVJUKGpQajQbFFLTc0tPQQuaKSigQtFJRQAtFJRRoGoUUUUaBqFBpCaCaNBo6qzyqEE55rJ8Rp80L/hWrbjYWHvmqPiBc2at6GpGtzA9KnXJizVcHIqdOYyKp7CZK02YttQDg1ZiRTCSRzVWlAkvtzGhrqNDk+02LRZ+eP5lrmY1L2yEVr6NN9jvUcn5G4Na16fPSDDVOSodepE1qkg696amN3PWoophHO8X8DfMtIchz6g8V8zNWlY9+OqLUR2SH0NYmquvzgHvWwxwu72rmtQcs5+tduB1qI58RpTbDTSfNcD0rDu1xdyD/aNb+ljMh9TWLertvpR6Ma99bngy2KbLUTirDDioZBRJCiyuwqJxUzCo2rCR0JkA4NSg8VEwwc05TWRq1dEmaUGmZpc1RNh2aM03dRuoCw/NGaZuoBoFYfmkzTc80uaAsLmjNJuFJuoCw6im7qN1A7HR2zOLhs9DRrC79Of2ojZhIvoRUt4u+zlHtUh1OUT7oqzDypFVU9KniODT6BIkRn5VajI9angIBbOKil++aI7kF+zfMAXrg1NJPtQYGCDUekqHYg9qmv4PLbjoTXXCzVjnd1O50lnP9ssElU/vY60I5lljBz83euV0O8+zT7WPyHrXRSQMcTQHg9q8HHYdwndI97CVlOKTLFzKFgxn5m4xXN37bZgnfHNbiQSE+ZN0UVy99ceZqDkdAcVpl1N892RjqijTsjV0pv3lZOo/8hCb61qaU370e9ZepH/iYS/71e2l7x4ktkVG+7ULDNTHpUZHFNomJXYVE1Tv0qButYSOiLIHHFNU1YSEyH2p/wBmIrBvU6I7FbdUsEM1y+yGNnPoBWz4f8OS65fmBW2oi75G9BXd3ej6d4Y0SOdjIkStiRo13O5PTmpcrbFRScrM4C38MahcfeHlj1NaieAZ363qhvda66xs59SiFxFpM0NqwyJbu42Z/DrV5NK0/OZpFYjqImZv1qXNo61RpPZnByfD69VsJewn68VA/gLWAPlkt2/4Hiu+uZfDVmP3pwR/fmx+maw7rxJ4ZiY7QX9kLGkpyD2NPuY0PgCc6ZNcXN0sVzHkiMEEEfWsNdK+YAvgdzXX2HiPw5qOqwWP2GURzsE8x3wAT04zUPiPS10fWJLdVKwsA8YJ7U3KR3YGhhqknCWrM2/8DzpFBNp1wtxHIuSGYArVRfBuqlsHyx/wKur8IwWWoXM1pdBnk27ogGI6dRUc3iLw3Z389nf6fdQSwuUYhien40KUmtjmxGGpUari2YMfgDVH586IfjTpPAGoRjm7gFdPDqvhK6wIr7yieglZlq/HpunXKbradZ/+udzmk5SMfZ0nszggxDLgcZ5q0/zRMPUVRlZgfl65q4hygz6Vr0PPZymNsrL6GpEODRcLsvJF96RetNDkTxoWfB4omTY2KUOUcUk0m9s0luQXdJfZMw9q0dQIe3Q45rK0s4vAD0I5rYusSRbUHANdVMxqbmTExV/Sui07VzAgSQ5WsLy8HNKxOMVVSkqiswp13B3R0t/rKtAVj/i7iuceMlBL1yeTTlbdFg9adJnydo+71qKVJU9i6tV1C9pj5dQKzbxt11Kf9qrGmS7Zj7CqMr7pXb1Na/aMegnamsMCnKCeK0rTRp7rDMpVPU0SaW4luY+xnOFGani0yRzlgcV1Vvo0MIGACatfYlHRa5J1F0OmEWcvHp2wdKd9iPpXTfYge1H2Nf7tc7ZsnZEngOSKx1WaKUhfOjwM+xr0f7NG67JkV4+uGGQa8nmVrS5S5QlSmcGujsfHEYhVWn8tgOVcZFc/tU2wXvanez2lleKqXEKyKOgPSkuNI0y8RIpowsK9EUlR+Qrkx43hAyLm1J96Q/ECNeRdWwI9Fp+0Rpd2tc6y18GeBldmudKt5GY5JZCa1Y/BXgHOF0ix5/6Z1503xGVeReQ/hHmmD4myIcrfD8Iqr24XXVnrNt4R8FWjB4dG09XU5DCEEg1curHw1dMGubK2mZRgF4s4/MV48fixdjj+0Dj2hpn/AAtW6Ix/aDf9+qXtl3LUlF3TPXItN8LW0glg0+1icdGSLB/lVWfw94Nv7hpbnS7KSV/vSPECT+NeXf8AC0Zj1vifrFT1+KLqci8j/GGj267icuZ3bPSz4O8Bhcf2Np318oVSl8DfD9zldLtY37GMlT+hri0+K5IAae0b/eipR8SYJc7hYN/wHFV7bzDRbHkj5y2KsxE7AD1qMEelG4jAHU10vY5zE1Fdt+3vUKnkVc1iMx3KMe4qkKIjktCyeWXNOmAAGKg35x7UpctxVJEMt6b/AMfYHqK6O0h822fPUmub0z/j+Qeua6axuFKtF0ZTWsW0Zyt1MyaFo3IxVcg81vXUAb5gKypYCGJreMrnO422Kkbbc1YiPmWknqDUBjbeRihZkt7eRXb5ieFFKUkjSMWy7psWEnkP93AqtBZy3FwI413EnnHar+jaXfakuSDDbnqT1IrsLPToLKMR26DPdscmueVaz0NvZXMqw8PR26iSUb5PT0rTS1c9Rgegq9HBtOam2Y7VzyqNmkaaRQFqFHSl8n2FXigI6U3YPSs7l2Kfk1HOUt7d5n4VFJNaBT2rC8RSFkhsk+9Idz4/uj/69JjsZAuGurB/PXrkqfSsBsodtbt0RFFsXoKxG+ZyTXmtpzdtjkq+7OyGgEkADJqzFZtIDhWc/wCyKWxt2nnVADz19hXVxRJFGERdoFXGDmOnTctWcyNNkPSCSl/s6QdYHrqtgx1NMaIYPFa+wXc19j5nLmxkUZNu+KrlYs42nI611FwgWFj7GuPWUiZ8jOaPq63D2QrqQ3yn5T3p8ENxOpMFs0ijqQKjcnB+ldz4cgVdDgKjG7JJ9Tms4R5nZkQhds4t4LqMZktGA9xURJHBtzXpUlussZRxlSMEGoxZQL0hTOMZ21t7FGnIzz8NxTojmZQelU2uYlGS4qudUVHyvOK7W9C1Esa7h9hHaskGlur2S4PPSmA5FEGVJEgp4NRKTUqRu5AUHNa3MnEvaQhk1OJR61r30T2V7uGQCcg1FodmLS4+0TuFwMAGtTVr/TpYEDyruT0ojVtKzJnSco6E6Ot1bh1645rPuXihBeRwB6VjSa68SNHaggHuahsrG+1m5EahnJOSewqnUtsONFtakk9891N5VpGSScDium0HwkV23eo8t1CVtaL4attJjVmUSXHr6V0EcBY5NYyqNmiikVorcBQoG1B0UVZSDAq0kIA6U7b7VlcoriPFIUqxtpNlICsY/SjZVjbigLmgCuU4zXH3Mpmvrm6cEYOxB6AcV1V9dfZ0kI528Y9TXHXkhK7M/Mcs31rnnV0dhKVry7GZeSHZ7k1QPHFTSuXkz6VEpG4seg5riijz23KRsaNGRvYE7sYFbiMMBfX3rjrPVXtAWUZDdc1O3iViQCApBz0ruhHliehFWVjr8/MAuCB1pScZzXKDxPIykApz7VIuvTEclDV3ZRt3jf6LKQOiGuDeQ5DD1rYvNalmt2jyAG4OKwHYE1SJNBzmPPcivRPDqf8AFP2v+6f5150eYv8AgNdDZ+OYNH0+CzNmZ2jBDENjFc1L4jKlq2dtsoKcVyI+JlmR82lyA/74qwPiPozL81ndBsexrpNrHmRiak8pvStz7GT/AA0n2I9lNaFmJ5Z9KkHAGRWt9gc/wUo0uVuifpQJmUJMfw09bmYfc4rVXRLh+kZ/KrUXhe9k6REUNsLIwDJcSdXb86clszcsa6638GXrYyAK6HTfB1tassl0fMcfw0iuZHI6H4Un1KRXdTHAOrEda9F07S7fT4RFaoB6v3NaEVsAoRVCoOiiraQ7e1FyW7lWO3weeasrGB2qbZjtRigRFtpNtTbaTbQIhK0hWptvFNK8UgIttMldYIWkc4AGanI4rA1S8W4jnSM5WMFTj1HWsa1VU43ZMnZFdrhbi1ml6gktXIX8hVmPdjVqW8uLWeQ2xBimHQ8gH1rKuHLSAEk44rzoybVjjlVurEBOFz3NVbuXy7cIDgyHFWXPzYHQVnairFUYDIUkGuikk5K4qCvPUhaTKCo92B6g9KYpyOtISeB2rvuj0B+70FSLIelQdKN2KBk5mJXmogxJpmeaXJC/WkJmz/yxH+7WTe/8fb1qk4hH+6Kyr3/j6k+tc1H4mc9L4mV8YpOc07PFGa6TpPUE0ZePlqwmir/d/SukS2UAcVKsAHQVdxGBHoiD+D9Ktx6RCvVRWwIc808Q+1IDOjsokxiMVYSAjoAPoKuiKnrH7UgsVVg9cmpkhxU4UVIq9OKAI1jAp+3irC2szdIm/KnfY7jGfJbFOwFXFGKtrY3DAER9fcUNY3C/8sifpzRYCoRSYq19kuCf9RJ/3yah2kUCIiKTFSEc01xgZPSkBVuZVggklY/LGpY1xUF2q9gd5JYeua0tZ1pLjS5RG6bX4wp5xnvXLwuT8xrycbNTSSOStWtoiw1uiuyocR54zWPdweQXkJyM4H1q9PclWwCcjtWbeS+awjz8qj8zWNFSvqca1ZUwT2pHRj0AOeoNBTjg03kd660bLTYZ5H/TJaQwDvCKky3rRub1q+ZmnPIhNuneGmm2jx/qjVjc3rS7mzRzsaqSKptov7jCmi2i3A7X47VcLt60gdqftJD9pIQnEZJ4qpJaRyyM7OQSatbt7YwML/OnFh/dFCk47CjJx2KJsI+0v6U06evaUVf3D+7RuX+7TVSRSqyPb1iGBUojx2p6r8o+lOxXadhHtpdtPxS4pAMxSgU/FKBQIaFqlrV7NpukT3cG3zYlLLu6ZrRArJ8UDPh28/65n+VJ7Cexya+NfE7xI8mqWMAYZCvGM49cYpv/AAl3iA8t4ish9I//ALGuc+yNd3KKp6QR8dySvFRS2Pl3ccImRlkcqpQ5OAcc9KRxc0tzpB4r1tSSPE0IJ64h/wDsaafFWs8/8VWRn+7Cf8KxL/S4rS182OVyQQCGHB6Ux7CJS4a4QARBgxzgNkAg8fWi7G3NOx1nh/xLro16GKfWJbu1ljZlJ6HHtjIINd6x3/Of4ua8n8POBqWmj/Zl/nXq6f6pPoKpbG9FtxExTWUEYIqSgjINDNTy/wARaGNHnkkil3RSOBt7jPOKzUk2RZ4IHJrofGQZp7rLZAnTCjt8lcdb3TzW7lxgliPTOK82vS1ujiq0/tCvKWkaQn3qDPc1I6kKPfmoiKlI51oJmkyM9KDxSdegJqilcXPtRSmORV3GNwD0JFM60FXa3FwKOKTmigOYDj0oGD2oPIoHFME9REHyLjq1Smzueu2Mr7OKZCxVFIx0707zjnlFx9Kd2XcYY2U4YYOM00pmpGcu2TgdgKTNJNgj3dR8o+lLilHQfSlr0j0BuKXFOxRSAQCnAUU4UAIBWX4lXPh68/65n+Va4FZfiQf8U/d/9cz/ACpS2F0PK4bhIpwrMEaS2QLIWwEO04NQ3M0D39vNE8bIDgq4IAIOST7EkmmvIsU8LMFKm2X7wz/Dx+tSO1m7Id0Iw4PCkfJzgdOvrSOC+lhb+9SezeNblWJcFlCbc9ckHuOnp0qddStmRALh49p2uGQHzBj9OapW7WscTRyyA4bJITJbpjGR9fTrU5vbf5wp2qysVGzGCSDjj8aA576tlvw6QNT0zHpLXrkY/dr9BXknh/jUtM/7a167F/qk/wB0VS2Oih8IgHNNkIRSTwByT7VNisbxPefYtCuZN2N2EB+tBscH4qlFwl5NGcCS4Zgf91BXMRqVhjGedoJ+taOt3CTaVp6o+ZJXdyB7tj+lUyuZMe9cNd2OXE6RS7jWGMZ9KjOMVYcAZJqBAXfd0A/SsIu5zJCeWB9/lvSnkhAMlV/3iBWbd6mFJS3OOxk9fpWVJK8rbmYk+pNdMKDlrI6YUG9WdjBqdwgCxzhlAwFyGH5VXnxPK0hAV2OTgYGfpXKAspyGIPtWha6o8ZCTkunr3FEsO1rEqVB9GaRBBwetJip40W62BHHzH5WPT8aRomR2jcFXU4YehrH1OVxZDijHFTeX700x4UnPai4JakSDCL9KXFPVD5Skego2nHSi+o3uR4op+DSbaaYI94XoPpTgKRR8o+lOr0j1AoopaQhRS96SnDrQAorM8R/8i/ef9cz/ACrTFZniL/kAXn/XM/ypS+FiZ45edYP+uCVdt/D11cWyyh40LjckbHkiqN4M/Z/eBP61qaU9zf6jHdTviG0Xl8YAAHSkefFJyszDdGR2RhhlOCPQ0lW7lZLq6muFibZIWkBx/DnrVTikZtanQaB/yEtL/wC2tevRf6pP90V5FoA/4mWmfWWvXof9RH/uirWx24f4R9cp49hNxoiQAE7pgSB7Cuqrn/FyH+yFm7RyqWPseD/Og3PJ3jLtYIY2VopXRsjoOtTsgD5A4pbub7HfTxyEkO3mK/1HNIHEiBge9ebiL8xyYh3aT6EMpDMFrM1S78pPs0Z5PLn+laEjiPzJW+6gJrmJZGllZ2OWY5NaYand3fQWHhzPmYyjFOC08LXedxFiipSlMK0AXdNuzDKInP7tz+R9a2C7faSXJJYcknNcyp5regl8+0jlz8y/K34VyV4faOavDqi9imuP3bfQ0qncoNJJ/qn+hrjW5z21EQfu1+gpcDNKo+RfoKO9DeohgHFGKfSGmnqOx7kOn4UtIOgpa9Y9EUUUlLSAcOlKOtNpe9Ah1ZniL/kA3f8A1zP8q0s1m+IT/wASK7/65n+VKWwHjl30tve3X+tdGbayGkRWQ1COFeGlKsCXNYhs5ruC2kgRXURBG+YDBBPrUf8AZN2BysQ+sq/40tNmedFuLvY0XktFthYpMhAyRNnrh8hT7EZqG8ubeW3mRfJGQ23agB4f5f8Ax3NVP7Mn7y2w+sy0v9mSY+a4tR/22FIG5Poanh//AJCWmf8AbWvW4T+5Qf7IrybQgset2MAkSRo1kLMhyMntnvXqsbfuk+gq1sdND4SfPNVr22jvrOa1k+7Iu2nGTFRyTCJcsR+NBuebax4enil8mbYqgfKTwCPWueSHySyAggHqpyK9B8VSw39ouxwXiPT2rhmjIYAY/CuDEtrQ5q70tYytXPk6ftHWRua59V3GtzxA3MUf1OKx0GBXRhl+7NKCtAUAVfh0m5liEjBYoyMhpG2iptJhgit7jUrtd8MHyoh/jc9qrSXF3fo1xOyhAwCs3RcdlFbG4tzpzwLuWaKXGM7GziqRAP1FSzySNKZVlRnX+4MU+TFzbG6UASK2JQPfoaYFJhg5rS0l8mWH1G4VRcAirOlNjUFHqCKiqrwZE1eLNuL7g9aJjiF/pTYjwfrTpeYnA64rzftHEOHCj6UUgYMqkdCKDSa1AWikzRQtwR7kOg+lLTQeBS5r1j0BaKTPNNLUCJM0m6o91Gc0AS7s1V1GD7Xp89vnG9CtS5pc0mrqwI86HgNuhupPwjpx8BIBlp5z/wABFeiAmmynML/7ppJGfsYdjzpPB1mX2GSYn6j/AAq8ngK1wMif/vsf4VrKf3+feuj7D6U3Efs4djltN8I22nXIniRzIAQCz5xXTqNqgegpaKENJLYazBRk1x/ijV2t4GVCdx4FdRdybYz9K8x8TXBlvQmeAM1SGZDXlxvLGViT71Tlll371lZH9RUj1A55oaUtxNJlO7EtxMZJJNx6VWb5Vq5J3qlLwDSSsNaG/eWE0mhafb2/ISMTyj1eRtoxRb2NtLBJO7AiNhHDCeMgdTWrHPHEBvICC3tHX3AYg/qant7SyvLO0WPaC8SI7Ke+TkfpSWwzn7yx3wpcxquCcAr2PYU+DT4k0x7hQd0spiYHoFZcr+RFdHFYQWyS7vlR4lcr6EHH+NYMV1E2mfZxIpka8jKg/wB0Z5NAHOe34VNpvGoJ+NRykefLjpvbH50xHMUiyqfmBokrxaBrQ2xv3NtbjPpTt0o/i/SsxdSkXoopf7VkH8ArkdGRy+ykX181OFcYPYjpS75x3Q1RGrN3SnDVBj5o6PZy6oPZyLnmz/3U/Ok8+Yf8sx+dVRqcXdDTv7Sg/un8qXs3/KJU5H0IOg+lIeKM8A00mu07AzTSaCeKbQA7NLTaUUAOpabThSAUU2X/AFL/AO6aWmy8xOP9k0AYMYzOPrXQ+lYNsP8ASBW6DxTYhaRulKelNfpQIzNSlxE1eX6u+/UpT6GvSNT4javMr45vZT/tUICk5qtIeasSVWemIgc9aqSd6tvVSQc0FFy5uWn021dWIaFTC/uM5FPstU+zsysWETnPynlTWfFL5ZZW5jcYYVat4TauZDbLdwsuOD0/wNIZdvddeW3aKJ2Yv952OSapaWP9Jku3OEt0LZ9+gFDxNdPiK1W3jPUmo7idUhFpAf3YOXYfxtTQFfJOSep5pO1ITRQAtFNzRmgB2Pej8aQc0vagBp/D8qXGewpKcKAPpXsKQ0v8IpD0pANJooxRigApwpKUdaAAU4CkpRQAUkn+rb/dNOpr/wCrb6GkBh2v/HwK3e1YVr/x8it72psQU1hkUtHY0gMTVVOw/SvMr5dt5IPevVdRiLxtivN9XtXju2bbwaBGJIKruKuSCq7pmmBTcVXkXcMVedDULxmmMzj1wadHNLCSY5GU+xqWSEnkDmoCrA4INAySS4ml4kkYj61FntQM+hpwjYnpQAgHrS4qURH0pwi4pAQbaNtWPLpfL9qYFfbRip/LPpR5ZHagRXxS4qbZR5dIZ9Hfwj6UlLkYHI/OlyvqPzoGJjmjHFLkeo/OlyOBkUCG7c0uOadkYzkUuVP8Q/OgBoWlApcjPUfnS5HqKAEwM02Qfu3+hqT5f7wpr7fLbkfdPekBgWv/AB8r9a3iKwLUj7UvI610OR6j86bEM20uKdkZ6j86CR7fnSAqzRbgawr3SkmJytdMwUjqPzqvJGD6fnQB5/d+HVJO0YrHn8PzKflOa9Llt1J7VTktFz0FIDzSTR7lf4DVV9PmXrEa9MkskPYVWksEPYUAebmzk/55mmmyb/nmfyr0NtOTP3Vpn9nJ/dWgDz77Af7h/Kj7Cw/gNegHTY/7oph02P0FAHBfYX/umkNlIP4TXdnTU9BTTpidgKAOENo4P3TTTbN6Gu6Olp3UUw6TH6LSuBw/kN/dpphb+6a7dtHjz0FMOkJ6Ci4HFGJvQ0nlH0rtDpCegph0dNp+UUXA/9k=;fontFamily=宋体;fontSize=15;" parent="1" vertex="1">
          <mxGeometry x="860" y="360" width="80" height="80" as="geometry" />
        </mxCell>
        <mxCell id="dpxFrvmY2BpC3zV_ax-8-99" value="" style="shape=image;verticalLabelPosition=bottom;labelBackgroundColor=default;verticalAlign=top;imageAspect=0;image=data:image/png,iVBORw0KGgoAAAANSUhEUgAAAlgAAAGQCAAAAABXXkFEAAABImlDQ1BJQ0MgUHJvZmlsZQAAeJydkLFKxEAURU+i6CLaqFiIRQpLF2zcymZVCIJCjCsYrbJJFheTGJIsi3/gn+jHbCEI/oK9grV3ooWFaRy4vMPjvXtnBmwnjbJqfheyvC5dvx9cBlfO4hs2q1KHnTCqir7nndB6Pl+xTH3pGq/2uT/PQpxUkepMyqOirMHaF/emdWFYYv124B+KH8ROnOWx+Em8HWexYbPrZ+kk+vE0t1lO8otz05e2cDnmFA+HIRPGpNR0VXN1juixp+pSEnJPRaSakqg31UzNjaiSk8uBaCDSbVryNps8TylDeYzlZRLuyORp8jD/+732cdZsWhuzIizDpjUn2aMRvD/CSgBrz7B03ZLV+f22lpleM/PPN34BwJBQUcdNdiYAACcVSURBVHic7Z37lxvHdee/36puPObJmeGIHJLDlyi+RdGiRD0TxXISxyfZc7LnJGfP2T9w82Oy52zW2Ww2sRV5Y28cy7JkPU2LEkmR4pvzwODRVXd/6AYGmAFmgMGgUQ3Ux9bMsAE0Ct1f3Lp169YtwOPxeDwej8fj8Xg8Ho/H4/F4PB6Px+PxeDwej8fj8Xg8Ho/H4/F4PB6Px+PxeDwej1swg2f2ZAACgAzizMEgTurJCAQVrBeWZ/8ZiKrghTXWEJBBScv7WOMLB2evADWwM3vGGm+xxprBjQo9Ho/H4/F4PB6Px+PxeDwej8fj8Xg8Ho/H4/F4PB6Px+PxeDwej8fjcRW/mCKbNO5b7yshurvlhPS1ysIvWM043EdpbTnTXk6963t43IMg47stIk0HG3exeTFX21+9v2NPL2SHvz0OUr9B+7L4jxDoQCkqAmD8Q5EgCUIRZPygDk1prbRhyaRH3GwHGz92wneFrpHcssT6kHUz1HR7CR0GEGuMqb+q3V1uOtZk0goLB4qFQBFQCqDSgVZUWoMq0KQKglADhcnKtzc/v1GmSowjW89FSqOdbRXmheUghCDu4URs03E9e2DuwGQuly9OzRSVVCu1qjHGWGOsNdYKxJhqpVqtVWtRrWZqxkRR/PqmHjH36vXnl1RsrQCQbLZYoKICqAJb+erv7pZt/f031SMt/+xkt7ywnIWAFUDlwlxhopgLcvnphYWF+alcPl+cnsorqdVqNWNMZI2xxppEWOVqtVqtViu1Wi2KalEteQIAWGMjOfbmm+fmumrAkWd3f1cDY7WBAJUCAKUaBlCApP6HQkOhwkCLF5Z7SOKnwwpUYe7g/PzymZMLM3kVFgtaM3bYucV0NP0WiLWRtdZaa0SsiDWAwNbKG6trhcV5MdoICdn0zpOOVhIzBghV8bWFB6VIBQo6FyiCOh8SVDofMukGJRk91FtMArAIVOSddxfRFLFAcOTEmVNHFouF6bmZYq6fwkCxQ2SiqFpVYZgPaGMNNBy3TWElrjkIVjaqNUtFUCsCUFoDoNKqRVgJLVISLyz3IAkrweTMycuXrpw51CIoG7vrzbdNWqKZ8SBvl3cQyBZhtT6G+JTcuzq8sNxDEVagj732xtVzM0GgICLcaheY2JVtXjQpySP1nq45GBXHCRqee+NF9b9bhqSC+FwtA78uqrWJaEbex3KDenCIoLXIL5y8eOHimaVJALBAkxHarrAODzS8peb5nyRU0PrcVqG079raPqMDAvhR4dBpiQ9RQChMnr5y/e2zRQBWwJ59q843vi7fts/fFmZPgmbE7lra8jr204t69gXV6HaYxKzCU9fefevQZB4WZBsdOI+IgvEWa9jUx2BiATU5u7B49NLliycAWGGPpsIlvLCGTMN9FpWfWVg6efHKmcMFiAioh9uy/vDCGjIEAGUNJo5/748uTRanp4sBRGT3mIHbeGG5gGXhwIU333jlEADAiCh4YXn6QkBYFE5c/bMfLom1IiSzLysvrOEjQmDxT//ixecAoYJwBGTlhTV8KKKKp157cwoiUK3TbxnGC2u4UMNg6uSlpRDWaoXRUBX8XjrDR4TTJ08vZDq20AYvrCEjAkydPD07arMgviscLmIBzp45O5/lKHs7vLCGjADMzczmRkpV8F3hcIl7PwZajZquvLAcQIdhMGq+uxeWA6h8vq+EdicZuQ+UQXSukFcYsVGhF9YwibPPc8ViOFpDQvhR4fChCnOF0bsNo/eJsgWhdJgrtK55GAV8VzhMSBGrCsUQsHa0NpP3FmuoCDhx+OzxIpqXDo4EXljDRCScOf7K61fmh92Q/ccLa1gQAgSnv3/9+eWFib6WszuJF9awIIT6wOW/fkcDkJFzdkft82QGKgAzp0/PANaMmoMFL6yhwvnzZ2fjpaojhxfWEFHz587NAuBoRRoAeB9rSBAwAjW7fGyKIFVcvGHYrdpPvLCGhADQEwdmRi7DL8ELa4gEuVBTSLEcOZ/EC2s4EALkp2eKGhi1dHcAXlhDhCxMzeTRthZa9vHCGg4UICgUCiMqKx9uGBqERKsP729YEDKC4QYvrGFB2JXvvn0SJWVBRg0vrKEgFoqorj5dq+7Txl6u4YU1FEgRqJnF52bD0RsSisA778OCYoPZMy+eWVR29JQFgF5Y6VLf+oGUwqV33jisZPQyZuKyqsNuxXgiIpi88PblqZE0V4DvCtMmqdcnBvq5s5ePjKyuvLBShhAhaWXyxMtnpmBl9MqBxPiucAhQBAeuvnk6P6KhBsBbrPRhPB5fePmN5XDYbRkgXljpInEIK5w5c+HEFAUckSLJ2/BdYeqQwgPnL5+YUv1tYuo23mKlDi24/OYr8xzBRV+beGGlDGGBwsnXX5obhf0nOuOFlS6kWKrFFy4fB0bUu4rxwkoVUhnkT1y9OD96ZUBaGd1O3lEEKJ5/6+LEsNsxaLzFSpM4WXTm4utnCsNuyqDxwkoREpbh7NkLJ2eR+S1Ud8F3hWmiCJm+cO35aYodxXzkJrzFSgkm/2HxlTeOJbs+jzJeWGlBQAxROPnaywfVqE7kbOKFlRqktWrq2IWzS3rEQw2AF1aKUFmo46++dFCN9FxOwsh/QDcgIQIBl146NwWxo7hEtRUvrPSwQPHYxZNFjoOwfFeYCgJFQ+aPPv/Coo7DDiPuZHlhpQUpE8+/cumgFhGOtO/uF6ymCAlg7voPLhWAEddVjBdWGpC0FLX06h8shsCo64qAF1ZKUESmjr507mDOjtqOlx3wwkoHAY7+0dvLGrCjupKwFS+swUOIFehT33/zoB750WAdL6wUoAiLSxdfPKLt6E8SJnhhDR4SyL3wyrWDSgz1eOjKlzEaHASSIiACBBd+eHWGI7yOcAvihTUgGgJSNAgmXnjl+jElI1sCZDteWAOBTGohK5JWFv7onTcOa2tHPYLVhBfW4KCA2kaYWnrlP72yFFpwfITlfazBECcvEAR1cP7tN98+pCKocUol8cIaDAIItK4ZffCFH/3l0SmMUzcIeGENEAUxog//4fdfORvAgBzZ7U3a4YU1KKhYQ/HQtb/+UcFaAeK4w7gE3r2wBoa1AM799Tvn8vU8GcGIL1JtxgtrUCjk5pfe/dEVDZBJffexkZUX1oAgdWHqyMtvXDqpYBmPBsdIVT7yPggIWsnPnf/jVxefmy5i9JcQtsPHsQYACRSeu/hn3yNGvQpWZ7ywBkN+biYCjKgx1ZUX1gAggfzCQgEYzZ29usILa/8hgXBmdpT3ndgdL6z9Ju77gnxOj/56nB0Yp3nRtBALFA8fmWrsTjiOeIu174gIOHPq9Awx+ivpO+KFtc+QIpTcwRNHckI1tr67F9Z+Q2WFc89fPpKnHXZbhokX1v5CKkF4+d035wlLNU6JMq14Ye0rVIgspq786MyMSOK5j6eyvLD2EYIwyB+5+ualSdhxncyJ8cLaP0haC576q3fPFSCiCMG4GiwvrH2DhEDUhdeuX39+AkYpjq2oAC+sfYQiau7kD/7zpRmiNka5ou3xwtonSBoU//jPr56eQgQ9xqHRGC+s/UHR2uLBc+++u1gY2whDC15Y+4Oi4dz1t99YhjFaYdR3ytkdL6z9gDAKXHz3T48KBRCOvYvlhbUvENYWD1158bQyHJcKWLvghdUnhEApSHDytbeXFSw1xzZVpgm/mKI/CFApE7F4/I//8tKsQHG8w1eA30BgfyAhCA6+9Ppbr04jUuNTWW0XvLD6QqgQsfDctf/yw1nAjL2xAhBfA79gtT8IAYsv/tlbl2cBI2NVT2ZHvI/VL5Zq8uyfvKEAM97pDFvwwuoHEha5qdlZBTvOS3La4IXVL1KrVBPnarzqyeyMX/7VN4QxY7LzUg94i9UPVAI1e+TQBGD9NE4L3mL1hQiC429cnU2igp4G3mL1g0CQO//u1QPDboh7eGHtHQIW6uDpS8e00Jv+Vryw9g5pER44fXwxwFivTW2L/6LtGRLC4ulLxwKIsd5zb8VbrD0jAkjh+ZeOhRif7eK6xgtr7wigZs68eMRfwzb4i7JX4v0tD505e0C8R9GCz8fqg7j21cThM0dnQet7wmYI+K/anqEi1IFzFxYJ44W1HS+sPlALL16cg4iPum/Hd4U9w8YPvXjhwpy3Vm3xwtorhigsnV7OY5z29OoeL6yekfqPieWTh/NxHSwRr65WvLC6hgAgYBjSGqsLkwvPLxXri+m9qlqJXBTW5k3a6hSzfpAtvzYf3cGLbpxVGumeSTCqyybFb64PHDmgbbmaX1iYPbQc1hOSvbA2EQEqTgmr+e4IuDXfV7Y/i80vEMaD3G1aadUQAcp2We6IAKASi3D+7b+6YGCtyuV0MDllfVrDVkQEKDklrE24TT6SHNxJCvFj5HYFNi9PZtNze0MkPHLlB39wdPOIHfuqMh1wqyuUhqLIREOy3UBJy9+y9QwQxdgeMbZSm91YIjwQInbrS3dDQYCJq3/x6iysoYp3IvQrczqgnBIWECej9BlwjJOjdj4HJRFdt2+lKCY8cPb1t07kJRYZyaZ+2rOJk3OFAhGoXBiQjLfpJmLLEP/Z+K9xTIEkqRSpFGFrtZox1hpjjLXW2jgyThhjRABSBaoa9V7KURAceuHs0QmxVPGJBnIBRgTXhCUQQB88ujBb1CS11lorpbVWSukGSgfxP5UOgkBrFYsrPoE1lfXVUqm0ulba2CiXK5VqJFCU0up6KWKgg+KB3N1bAunBeSdISm7huUlArCYFMs7bXO6OW8KiQBeOXHjhxOGpQkgQiooqMUeMTVLz/6hIpbdVeLGValStViu1qBZFkYmX/Ul5dX2losMgnFjEpz+/cXuth44w3oKXuWJINDZ69nGGHXBKWATU9LFXf/T6Un/NUsViu8NSXauqUAe50F49/F5pTVSPvpwtrVUaXpVX1I64JCylxATLf/DmtWOUHsq2cJs8mixRs3fNfCiJyzZz6cEHvawFjEcU5dtfvFSD4vjuTd89LglLrCBcfvXlwxTbTi8drMT250m7X0ASP4VQ8vOzYe+LTGuPvn0SAb4mchc4JCzCAuHhc6dyRu1LgGjrGeLIlQgCBmGo4yBZd9oSUQBk49F3jw4S9bi9pzMOCQsAkJ+cKWBAW5PGwVexAPOzs4XeXmypaO3TX84/uTwrkZfVbrgmrCAIBmwMSAB6YiK/l1dufGrW9MWJ0KeM7oZjwiLjuPkgI9px8meQC6Lu56HjIAMYfft4AysXDwfia0LujGPCgtIKSCEpU6h0tH2ucYcXABagVH57/+fvvvX8wZwvN9oRuleDlEqllYbS++hAAChZW7tfjexUzg8Nd8SxbCKmlS7A3vaPEEG8GoeBhrn1q99tDKxlo4FDaWrxLElaBot7rJRGBaiZg7MB+k7CGG3cERYAgNsn/hxDgNzypeX83lIFxwe3hEWl0por2aO9EWORP37haA4+yW9HHHPelXZ7UzaKCIIDhw8MOtqWedyyWM6bAQsAzBdzTrfSBVyzWKlFG/aIBZBef51hHLuPqYUb+sHvHdcFblmsOGvdYeJqa84PXYcKXayPpYKUnPc9RrEggJ4qFgK/lmIX3LJYUM47WUR+Zrrgh4S74dZtJHVqDdqLzSKBcHp2uveUm7HDHYtFCqjS8rH2XoYvmJqZ0D7rfTfcslgZ6AqhixM55Sd0dsMdiwUAVIGC4zdNBaHr2ncBx65RamGsPt6HpDgu/qESVzRwTFgZGMS730IncKsrdJwkZUx7be2OaxbLffTERDjsNmQAxyxW3RYM3CTsKdggAiB/8NAkfdLMTgics1gpTkLvTVrAzLlLi15Vu+KYxXIZAsJg+vnvXTxAn+6+G64Jy2VboMTqhbOvXz0Ka73/vguuCSshhcWgPRmdemvyF//8rUNJXdtBNGoUiL0ZR4XlHqRY5peuvXO+kJSN93TCC6trBIoixZPXXj01aU0m8lyHjGPCSu2O9ex9Wwpmrv/JS1NxcduBNGqUcExYDiOC+RevH/PB0e5wVFiOWQQSlsjNH5wvANS+0MzuOCos16AAuYUjixPofeOB8cQ1YbFdTVsn4Oyp04shxIewusKtKR2ysTvTwOk1jsXFay8vxpW4/aBwJ9zMx3IUEXD21KkZn47VLU4KK41715tVFEBPH36u4NMausU1H8tF4iJtM0dPHArpTVaXeGF1B8OZhQVfba17HBNW7Ba7tvEDIWpybqZQ36HCszuOXacU0/y636CJBMKDJ5dyEDvINo0SflS4OwISeuHEczlfz7Z7HOsKk75w8Iar13fQs4cXXLtWjhJfWscuVnK/3drDW0SgJ+emHbtWbuO7wi4QQM8szgSuV0h1CTe/hS7dvziKlVtcPpRzyo46jpvCco/czHzbfaY9HXBNWLGtGryP1ev4rljscePMcccxYblX6JoUgIXpCQ3fE/aAY8JylGBmYTrw0zm94JqwYovllN1SVnLzizMaIj6g3AXjnY/Vm48Vzs5PKogR+th7l4yrsHpDBaHfM6A3XOsK04PJj24skKls1ARUfmF917hlsdKLbCfv023Pljytt/1+xxq3hJUa0dp6pYenUwdjeqH2jGtd4eAtlohoWbl1ZzX5VnVjg1ShGBJi/Vxh1zgmrDTuHAHkpid7WStvSmsVAZVfrdoFceKTY8JKAQrBqcXFYmysunKaqo8frhtQ+XXQXeOi6zDgWJEIkrmj7t7HCqK1ZxtxdNQ7710yfhYLAGAj033OO0QVJkLucY/DMcUxi0WSaThaYozp9rkEwqmpAiFWXLte7jKmF0pM9xZLgMqDe88MlPbLdLplXOcKbS/CEtSe3P1uzW9R2AuOCSsuNjN4Z0ZM1KXtidtSe3Dnzor1Ezrd45iwGst0Biwta2237yBCRVS+++ZBDbL3jVnHDdeElRbW9uAtEajdv/FtL5NAY4+jwhqwNyPWdG2xYqL7X96ugMpP6nSJc8KSVOZ1pPuuMO6Xowc371W9j9U9jgnLmnTG89J9GCueXIye3LpX8qspusctYUlU7T4MsNf3gADWWguwy128RCDlB9/eKQlVL6ZunHFMWLVyNZ3Ktsage09OoIjyw3uPqq5V7nIXx4RVLdekvqp9oG+U2J2upBUnJUcPv7zx1MuqW9yZhBYANqrVTBoZwGJ6CTcAQtibf782eVAnmTPJDmBulcVxCNfysaJqtxHx/ugpjIV4g8Knv9VL+ePTWgw3qy15OuBYV2iq1VSEFU9Cdx9HF6uUXf/sx3/7YQk2somkRNxaWusS7lgsASBRLeohDrBHCIixEu+Q0x0CgbKrv3goc2fzeVMj48LcXladcEdYAABTraVjsXrrCkEIEdiVz3868eTCogbo7qY/buCasCqpCKvXyWQSYhWI8r/f+ewvry+EQOy6+/3lOuGYsNB1Okt/xFM6jeHdrk8HCYrQrt8s37z81uUpG4T5Yp4Qv7qiPa4JK+plrmXvSDx11HV3JqIoAtLWbt364KvXpqU4f/jUkva66oRzwqpV03gbkV5nZpKuU8PKyr/8DJx54ZUfLmpYPYDWjQCuxbEg1Uo1l8b7WPQyKmx0mQLCrq8D68XldZ8A3xnXhGWr5UqgBhrRFgBiEwvU82b2AKjEMqQxvhvsjFsBUkCq5WoKXlbcE+4xz1gEELOxXrWAL5vVAdcslkTpxN77nuU2pbUN4wPvHXHNYiFKJXHG2n6UJQBMaXW9Cgx+3UdGcUhYIiQkqlbS6Ar7lANhqhvlaJ9aM4o4JCwAgJhKOtPQfRNtlKveXHXENR8rni0Ut6dKBAKYcvwV8CHStrgkLCoR2FqUhhXoz9QIKKjpogKsIRXr2w37xL8E9wKkppZOfkP/bNz6xM4VVeKw+cIOrbgkLBJAWql+/UFCVv/pzmt/eGEuAKxNZqm9vWrgkrAAAjYyNguOCxHdefr1L89cOHv6qFIAxArplVXHLWEBsFEqPlafCEAplx99NHH5e9e/t1TIhXozDd5rC+4JKzs+llDBysZvvvjfS2eunj+xNKOBuFd0b2+8IeCcsKJyxWTkSy9UIuXy069vfHbsyNLS0uEjCyqJC0rd3crEBxkEbglLgFhYfZ5k19vZd50rAQUCUkHMvXu/0LOHT1+6dvbQjFJKKWkq9D2m0nJLWLHFsoBI4glvvS3JQtH4b9n2BAFB23iONI7FvyAQEQJxGSMlfcSzGucWADBP1m//6m8PvHD2+LGlpfnNvtBaIP4g4yUw5+JYiCpV282NaFbYlsO00pCVtD4myQEd6H260RI3VmylsgJ+dnzp0OFji9PFQnFqdjqvGQ8YMzAc2W9cE5ZUV1droLIdhMW6OETa1NESia2YlaYN45LVNC0FIZRW3IcOMXlXCJQGILLy8cfQs9OTU3OLJ86fmi3OTOcxnpuGuSQsEYF58PHi64l4tmsr6X46ei/1V7SfWt98vimtrkdJ0KDvZje3jBCYx091kCtMTk/mJw+fXpo+cHR5QmHcVoo5JSxLYuPO558uH8ppsR3uA+v/b5dXbC0YmygRC4i1xkTGWGONtVastRLVamb1zu++XN/v2gsCQFPEirW1jWcAgJnlwzNzy6eXjy5M5sZKV459i5RGTR35/juvn9fo1Blu0upmCQhbqVQjC1gTGWOM2GqpVFpf39jYqJTL5XKlWqvVapXIRLVqNSnxtk/iai4T0mi4WJIkpy784PWLx7QdEw/eisa6SxYrvhP20c+ermycXNghUyyqVqpgWChsvU8MVz758M5GpWaimrEWYmu1Wi2KoigyUWRMZK1tFJrZ15vcEuOQuieYVAx8fPPrE8etHqve0D1hofzVs9KD8ycOKIRaEdaKRSIGAaRWq1TK62UWFs4ub1nUJwzUd//2wf31rlI7BzYf2fAESQWlWBFTWqtivFZNuyWsZOD25Ge/LE7mEE5OhbTViolMZCQJGYkYK7Ziwrmr/3WpWViEGKWmFuaKYurjsObgd31X580VgvvqYrWcrv4WAlitAIqVobkdSdRlM5hXP7hlp/WtEcHmK9fo3OvObfO5tkLAOWHF2HL5GQDogqJEUft6squH19scVlorCNgUJW0h/XG/CBCtrZTbDnNTxILxbMHmv3Z49hYlNdPVJXQvQIrku2UBmPXOTwrzYbKl8+YnJyHGWBIqjr8PP3wUh8+iZ4+Gu2w6tjOUJmOqiHqMr8kMNaXCxvdg6wyZbD3QAReF1abtrQNAor1qCMBWawZi4UiKRHy3opVnGwIOy8eS7TXiGk7EtiYlw1sryW2o96LJg5uGd+cP46KwWmnT/vib1d4c2ShyrxJ7tL5SGWKjKLZ0+27+6EIhgAWBaO1ZRZTOBWEYhjreHXzLSzoWOxE0RrudniGAOCusNi2X5j/q0zHNF4RET1tcpoEIALOxXhuW8y5CSuX2j/95+q2LBwoqEgXZuPv7p5IrTE0UJycncloBJBWVUkorpRgGii09xOav5HjbdVSNblY7K6ymRneSydZKREn36VwGqgAwlaR+/RDe3oKInnz92a83/mMqVBQhYCrrEagCrbXWiiBIpQMd5oIwCMKwWMjlC8V8LlCKpFJaB1oFuVwQ5nK5QtjFMCTnqLC6oa1+xNSMOFceVKI0Kp10enOg9uTew6frj3d/rg4CrYMgn8+F+WI+TIRFrQOtwiAf5vL5fLE4kdMgCCqllFLUSutABUGgtVYAoFhxVFiNPKcdniKNZyYQgKnVHPSxJIpMI4lnCHYrWnlc1mC4uQVWS3Bv81IbU0FHhx5KBzoIgjAMtFZUSgVhmMuF+Xy+UJwoTkxOTE4WFQDmdMlRYe0eKeiQ8iJRCvW8e0MAMbVkUVvqqiJBlL/5/F4V2F4Jpf1V3na0HvyK4r1AqUgSjC2WVlprHQRBEOogUACglXFWWLvSXljW9LrFZSrUyqXS9JCCDQSq924+NC2CaXONmlz0bTMW0jKzIF18dzMrrA45emKidOou98jGs0dzOQ5lGppA7emD1V2vytZucetZNmNZaLW8zR8q8U8ku8LqoCwxkVvhBsTJhOX11Y1gGPkNogTVx3fvrdn+MqQ3W94+EJTEVQWEkBxBYTkWx0qorq+XJ4dQYdkStKX73z2J0O8M15bgTqvNqudXJgHUDAurw9fPOOe8C6gspFqq2PQnL0VAqa4+WSl3vZ1sb+ePfyX5Z40EChHnCq/1izWOxUeB+LrXNiqSvrAAwK7fu7eGVAekIq5G3rugQ1cYb1fulLhIit1YKQ3JlMrKza93SBPZ82m3/938K7MWS9pnaVk3XSzYJ7cfVIVpX26SkGdffvkk9TudWWF1sErWuiks8+TWw2HUwiUQ3f/085XUjXh2u8JtxPmy1sC1tUcQgazce1wDkG7lLwGBjTuf30zfvcuusNr6WGLT2T2sZ2ylVJY2eU8DRSxpnt346rGwrzIVeyG7XWEH3926KSwpr63XhrGFdO3ORzfWhrA1S3aF1dZkSbwR4f7UZNgvRAC7/vhZyUINIpjUGRLVbz78/UaKb1knu8ISaTP7peJv5vZyIUNFAFQf3X9UToKHqb0ticrND77cAGza37XsCqsdtrSy4WhXKKvPVsq244zBALBCSvTwqxuPapvb6KVGJp33OJNj66USonr3i9tVQLkVIBWAAptkIKbl7VgLsnz/029WBjObswtZtlits6IigCmtli1IupacTADr3323nuJ0IQFg/Yvf3BnOMo5MCovJ+q9OqUPOFTojCTz7/VcrqQ76Sax8+uu7w/ENMiksAIA0ysYASO4dY6/drUEhAFIBK1/dXJMUnSxF2Kdf/Pa7ISRVINPCku2rnakc3UpXBHjy2eeP0yuRZYU0K3e+ulPqM8Nvj2RZWNvDDXH6mSD1yd5dEBHg2Y1Pv14T6lTshwgoa9/87u4GUg1xNMjkqLBOS+ZGXFvdsT4wQYSKZv3GT9X3TuXEqhTmdgQw9z/69CmgOIzlJRkWlrSZvXHNVG1CUh68X+KhHDnQzPfN5Zbm3oefPBtWzeZMCqu+FKT5gsWrSJRShAicWwwtAqD0ybMjFycDbS0H5gvWL4oGanc//mIFsEMJvmRSWDE7hRtcqWK0iUCpSJ78x+LK5VllB1c1MnGoSKne/+rmQ2HaaQ0JWRaWtRkq6ikglSl/ZitzEyFlsHlZAiJ6eOPmYxlarDjDwoor3rK1P0yGhc4ZLBBWoOTug/y5+fmQRgbVGZKw1hLlm7/5pgoGZjjXIsPCci4MuiMEQIqpfvl/oteWgwE61CKiFFH65P1PS8MbJ4+YsNxKl2mBcc1d+e4nGzMHB1jHQUSoYB5/8u+/umsgw1oCkGlh2e3jdmeVJRJ/FVTpC549cbKorR1MbIRiNXDrxz/54H5E1S5pLRUyLax2Fospr1foljjVh6SVb/81+MMrE5T9HBo2tjsTq0J5duff/sevnlSGORefZWFZK9xSDLNusJzLb2hAYP3/PcaxiSQMsG/aShbiWAO19tufvv+LR9QyxIpOGRfW1mNJQTAH41gxAkuaJ5//4tTLhydgRG0vlL034rCwCHQQPf7sv//91+WhzBBukmVhdb5w4lzkvY4Ilcjqxz8uvzNB1cZJ7A9Fhe9+/t5Pv6wqPdwCdBkWVnsnKz7uqKwAxJnK36zVlp8rUO3bgrB4Bp4K0ZNf/rd/Wokrk+/LmfdIhoXVRj8kFeI9YxyFBBRRufvRz3Jn5gOzXw587FQq4rO/f+/Xa1BK7HC9gSwLy9EyDTtDCCiQW/9ctS8H+/kNEGq7cusf/+43GyAxtDhDQoaF1bErdBpJJpye/OvjuecnqLjbPlzdYq3G2s/+188/KyktBlTeYu2R9l0h6V7OTBMSSwtKard+Pn/tdFGkvvhjb+qKXykWSpfvffTjf7m1ARgHgi3ZFta2Q+4t0NlKHG4iBWsf2MrsseRYX2dM1lnefu/9f7tRU4F1ofRctoW13fV1dkpnCwJWf/d08txCQcGK2nsfTkDEKM3S3ff+5perouCG55ltYW07RseqNnRCQGXt49/8U+3KYlzaeO+nssJAofzrf3z/V0+hh5Lg3oYMCwvDHlH3g5DKmpv/sFaYLvR5JohSZv33//A3N4axPUEnvLCGAiEGWp79Ojo2d7qgIWL3YmpFACoNfPPPP/ngtig1zNnBVjIsLMcD7LsgokBrvvqfD188c2whR/Q+MpS4WG718a0bH/3it49qTq1+y7awto59MuJh1QvQgGrlXz44f+3VaycKpEhPES2BFUWxlRsf/vy9L8uggjg0Ks60sLYfG9yyqn1HECf9PP3w5r+evHDtyrEiAGuoGhNSDZHENVC2vNoqDcitDz786PMHTyr1DUdc0VWWheXMNdwzAgB2ff3bTz767KPzpw8vTCoVJ78QbTYNsXWFCRSpUF25+9Un//HJ1yWJ9yiAS5ck08La5qkmyU3uXN7dUYqQ2o0b/3DiyvU3L8yoeLdKJiny9d0CCbBukSQpTlG78Zv3f/r7DaGmWDjjtSdkWFhtEv0kqWaEDIlLhKBg48bjT3/ywpXLp+ebHmr+gGzt5u98+MlHX3x7twa6OYrJuLDamKysIRBQw9bu3/947qVXXzx/aKpIodIK1FvGitaKiFhbfXL74//74c2SgFq5WYA8y8KSxK3YFFNWAu9NxH4WlAbEPn3/3587c+nVM7koLEzNTAEtAYjaxka5WjVRpfTg/713s1SFhqD9lkLDJ6PComQ9jlUn+QhiCcDaWunh7381H9iwODM/P1XMh6FSUS2yxpr1p6trpXIlslG0dvvrCGBjY01nggybZFRYANrGG7JnsQAkM8mEAkRWVn4HAMzPHpiemijkQ1UtV01kamtPVzfKjW6Pmk5PPGRZWG2+ptRJ3dvU29IX0vjBRkihXHusFBUT51xETMOnJFqTrhz8uJkWVjsyNSLcTj36LpQO200l++O6/iGzLKwdfCwHnY5uqc9TxQORxIwBgDQy+obVtF7IsLDaOe9M4liZuPY70qaCVqY+VIaF1X6yMP1mDIxMCWkrzhaD3QUC2D6NkcE41qiSUWElG1BsV1Z2shtGnIwKKybTfcWIk0kfq1GOu01XGD/uJTdsMmyxuF1Ysj+Lij39k2FheVwmy8LakjZDAFB+WOgGWRVW+20JfbjBGbIqLLR30b2wXCHDwmqH15UrZFlY2ZiNHVMyGceqBxWGXbXO05ksW6w2eB/LFUZMWD4+6gqZ7AolyRJvu4HAMBrk2UYmhVXPbrAim1EHsRpbNkDxDI+MCgtAPUDaiLVrgkGod3yJJy2yLCwATZErAtCFidyoeY0ZJZvCitcZWGut2agaY42xxhhBrfT1N5XMr9QZCbIprBixIra0VomiWjWqVWuC8rPbd2vDbpYHAP4/oY9pMZ/xwbIAAAAASUVORK5CYII=;fontFamily=宋体;fontSize=15;" parent="1" vertex="1">
          <mxGeometry x="860" y="495" width="80" height="80" as="geometry" />
        </mxCell>
        <mxCell id="dpxFrvmY2BpC3zV_ax-8-100" value="&lt;font style=&quot;font-size: 15px;&quot;&gt;全聚焦图&lt;/font&gt;" style="text;html=1;strokeColor=none;fillColor=none;align=center;verticalAlign=middle;whiteSpace=wrap;rounded=0;fontFamily=宋体;fontSize=15;" parent="1" vertex="1">
          <mxGeometry x="860" y="440" width="80" height="30" as="geometry" />
        </mxCell>
        <mxCell id="dpxFrvmY2BpC3zV_ax-8-101" value="&lt;font style=&quot;font-size: 15px;&quot;&gt;真值图&lt;/font&gt;" style="text;html=1;strokeColor=none;fillColor=none;align=center;verticalAlign=middle;whiteSpace=wrap;rounded=0;fontFamily=宋体;fontSize=15;" parent="1" vertex="1">
          <mxGeometry x="870" y="575" width="60" height="30" as="geometry" />
        </mxCell>
        <mxCell id="dpxFrvmY2BpC3zV_ax-8-102" value="全聚焦图" style="text;html=1;strokeColor=none;fillColor=none;align=center;verticalAlign=middle;whiteSpace=wrap;rounded=0;fontFamily=宋体;fontSize=15;" parent="1" vertex="1">
          <mxGeometry x="980" y="635" width="80" height="20" as="geometry" />
        </mxCell>
        <mxCell id="dpxFrvmY2BpC3zV_ax-8-103" value="切片1" style="text;html=1;strokeColor=none;fillColor=none;align=center;verticalAlign=middle;whiteSpace=wrap;rounded=0;fontFamily=宋体;fontSize=15;" parent="1" vertex="1">
          <mxGeometry x="1080" y="635" width="60" height="20" as="geometry" />
        </mxCell>
        <mxCell id="dpxFrvmY2BpC3zV_ax-8-105" value="切片2" style="text;html=1;strokeColor=none;fillColor=none;align=center;verticalAlign=middle;whiteSpace=wrap;rounded=0;fontFamily=宋体;fontSize=15;" parent="1" vertex="1">
          <mxGeometry x="1170" y="635" width="60" height="20" as="geometry" />
        </mxCell>
        <mxCell id="dpxFrvmY2BpC3zV_ax-8-106" value="切片3" style="text;html=1;strokeColor=none;fillColor=none;align=center;verticalAlign=middle;whiteSpace=wrap;rounded=0;fontFamily=宋体;fontSize=15;" parent="1" vertex="1">
          <mxGeometry x="1260" y="635" width="60" height="20" as="geometry" />
        </mxCell>
        <mxCell id="dpxFrvmY2BpC3zV_ax-8-107" value="切片6" style="text;html=1;strokeColor=none;fillColor=none;align=center;verticalAlign=middle;whiteSpace=wrap;rounded=0;fontFamily=宋体;fontSize=15;" parent="1" vertex="1">
          <mxGeometry x="1350" y="635" width="60" height="20" as="geometry" />
        </mxCell>
        <mxCell id="dpxFrvmY2BpC3zV_ax-8-108" value="切片7" style="text;html=1;strokeColor=none;fillColor=none;align=center;verticalAlign=middle;whiteSpace=wrap;rounded=0;fontFamily=宋体;fontSize=15;" parent="1" vertex="1">
          <mxGeometry x="1440" y="635" width="60" height="20" as="geometry" />
        </mxCell>
        <mxCell id="dpxFrvmY2BpC3zV_ax-8-110" value="切片9" style="text;html=1;strokeColor=none;fillColor=none;align=center;verticalAlign=middle;whiteSpace=wrap;rounded=0;fontFamily=宋体;fontSize=15;" parent="1" vertex="1">
          <mxGeometry x="1530" y="635" width="60" height="20" as="geometry" />
        </mxCell>
        <mxCell id="nwymVL3TzV53-KuNxge8-1" value="基线网络" style="text;html=1;strokeColor=none;fillColor=none;align=center;verticalAlign=middle;whiteSpace=wrap;rounded=0;rotation=270;fontFamily=宋体;fontSize=15;" parent="1" vertex="1">
          <mxGeometry x="925.31" y="390" width="80" height="20" as="geometry" />
        </mxCell>
        <mxCell id="nwymVL3TzV53-KuNxge8-2" value="+令牌通信模块" style="text;html=1;strokeColor=none;fillColor=none;align=center;verticalAlign=middle;whiteSpace=wrap;rounded=0;rotation=270;fontFamily=宋体;fontSize=15;" parent="1" vertex="1">
          <mxGeometry x="910" y="486.57" width="110.63" height="20" as="geometry" />
        </mxCell>
        <mxCell id="nwymVL3TzV53-KuNxge8-3" value="差异图" style="text;html=1;strokeColor=none;fillColor=none;align=center;verticalAlign=middle;whiteSpace=wrap;rounded=0;rotation=270;fontFamily=宋体;fontSize=15;" parent="1" vertex="1">
          <mxGeometry x="925.31" y="580" width="80" height="20" as="geometry" />
        </mxCell>
      </root>
    </mxGraphModel>
  </diagram>
</mxfile>
